<?xml version="1.0" encoding="utf-8"?>
<!-- Generator: Adobe Illustrator 16.0.0, SVG Export Plug-In . SVG Version: 6.00 Build 0)  -->
<!DOCTYPE svg PUBLIC "-//W3C//DTD SVG 1.1//EN" "http://www.w3.org/Graphics/SVG/1.1/DTD/svg11.dtd">
<svg version="1.1" id="Calque_1" xmlns="http://www.w3.org/2000/svg" xmlns:xlink="http://www.w3.org/1999/xlink" x="0px" y="0px"
	 width="500px" height="500px" viewBox="0 0 500 500" enable-background="new 0 0 500 500" xml:space="preserve">
<polyline fill="#1200FF" points="372,200 443.5,200 443.5,193.5 372,193.5 "/>
<path fill="#1200FF" d="M439.25,204l22,2.25c4,0.5,7.25-2.75,7.25-6.5v-6c0-4-3.5-7-7.25-6.5l-22,2.25c-3.5,0.25-6,3.25-6,6.5v1.5
	C433.5,200.75,436,203.75,439.25,204z"/>
<polygon fill="#1200FF" points="340,237.5 372.75,237.5 368.75,272.5 344.25,272.5 "/>
<polygon fill="#1200FF" points="235,237.5 267.75,237.5 263.5,272.5 239.25,272.5 "/>
<polygon fill="#1200FF" points="155.25,202.75 134,202.75 138.25,181.75 151.25,181.75 "/>
<rect x="266.5" y="193.5" fill="#1200FF" width="75.75" height="6.5"/>
<rect x="160.5" y="193.5" fill="#1200FF" width="75.75" height="6.5"/>
<rect x="64.25" y="195.25" fill="#1200FF" width="65.25" height="6.5"/>
<polygon fill="#B79D7B" points="144.75,206 135,195 123.25,195 127.5,235 161.25,235 166,195 154.25,195 "/>
<path fill="#1200FF" stroke="#1200FF" stroke-width="2" stroke-miterlimit="10" d="M151,314.5h-13.25c-3.25,0-6-2.75-6-6v-7.75
	c0-3.25,2.75-6,6-6H151c3.25,0,6,2.75,6,6v7.75C157,311.75,154.25,314.5,151,314.5z"/>
<polygon fill="none" stroke="#B79D7B" stroke-width="2" stroke-miterlimit="10" points="160.5,235.75 128.25,235.75 123.25,193.5 
	135,193.5 144.75,203.75 154.25,193.5 166,193.5 "/>
<ellipse fill="#1200FF" cx="145.5" cy="175" rx="10.5" ry="13.5"/>
<polygon fill="#1200FF" points="127.75,237.5 160.5,237.5 156.5,272.5 132,272.5 "/>
<path fill="#1200FF" d="M68.25,205.75l-22,2.25c-4,0.5-7.25-2.75-7.25-6.5v-6c0-4,3.5-7,7.25-6.5l22,2.25c3.5,0.25,6,3.25,6,6.5v1.5
	C74.25,202.75,71.75,205.5,68.25,205.75z"/>
<polyline fill="none" stroke="#1200FF" stroke-width="2" stroke-miterlimit="10" points="134,270.75 137.25,299 151.75,298.5 
	154.25,270.75 "/>
<line fill="none" stroke="#1200FF" stroke-width="2" stroke-miterlimit="10" x1="143.75" y1="270" x2="143.75" y2="297.5"/>
<polygon fill="#1200FF" points="262.5,202.75 241.25,202.75 245.5,181.75 258.25,181.75 "/>
<polygon fill="#B79D7B" points="251.75,205.75 242,195 230.5,195 234.75,235 268.5,235 273.25,195 261.5,195 "/>
<path fill="#1200FF" stroke="#1200FF" stroke-width="2" stroke-miterlimit="10" d="M258.25,314.5H245c-3.25,0-6-2.75-6-6v-7.75
	c0-3.25,2.75-6,6-6h13.25c3.25,0,6,2.75,6,6v7.75C264,311.75,261.5,314.5,258.25,314.5z"/>
<polygon fill="none" stroke="#B79D7B" stroke-width="2" stroke-miterlimit="10" points="267.75,235.75 235.5,235.75 230.5,193.5 
	242,193.5 251.75,203.75 261.5,193.5 273.25,193.5 "/>
<ellipse fill="#1200FF" cx="252.75" cy="175" rx="10.5" ry="13.5"/>
<polyline fill="none" stroke="#1200FF" stroke-width="2" stroke-miterlimit="10" points="241.25,270.75 244.5,299 258.75,298.5 
	261.5,270.75 "/>
<line fill="none" stroke="#1200FF" stroke-width="2" stroke-miterlimit="10" x1="251.25" y1="270" x2="251.25" y2="297.5"/>
<polygon fill="#1200FF" points="367.5,202.75 346.25,202.75 350.5,181.75 363.25,181.75 "/>
<polygon fill="#B79D7B" points="356.75,205.75 347,195 335.5,195 339.75,235 373.5,235 378.25,195 366.5,195 "/>
<path fill="#1200FF" stroke="#1200FF" stroke-width="2" stroke-miterlimit="10" d="M363.25,314.5H350c-3.25,0-6-2.75-6-6v-7.75
	c0-3.25,2.75-6,6-6h13.25c3.25,0,6,2.75,6,6v7.75C369.25,311.75,366.5,314.5,363.25,314.5z"/>
<polygon fill="none" stroke="#B79D7B" stroke-width="2" stroke-miterlimit="10" points="372.75,235.75 340.5,235.75 335.5,193.5 
	347,193.5 356.75,203.75 366.5,193.5 378.25,193.5 "/>
<ellipse fill="#1200FF" cx="357.75" cy="175" rx="10.5" ry="13.5"/>
<polyline fill="none" stroke="#1200FF" stroke-width="2" stroke-miterlimit="10" points="346.25,270.75 349.5,299 364,298.5 
	366.5,270.75 "/>
<line fill="none" stroke="#1200FF" stroke-width="2" stroke-miterlimit="10" x1="356.25" y1="270" x2="356.25" y2="297.5"/>
<circle fill="#B79D7B" cx="287" cy="301.75" r="16"/>
<text transform="matrix(1 0 0 1 134.999 229.583)" fill="#FFFFFF" font-family="'ReplicaStd-Bold'" font-size="30">2</text>
<text transform="matrix(1 0 0 1 241.249 229.583)" fill="#FFFFFF" font-family="'ReplicaStd-Bold'" font-size="30">5</text>
<text transform="matrix(1 0 0 1 347.4951 229.583)" fill="#FFFFFF" font-family="'ReplicaStd-Bold'" font-size="30">6</text>
</svg>
