<?xml version="1.0" encoding="utf-8"?>
<!-- Generator: Adobe Illustrator 16.0.0, SVG Export Plug-In . SVG Version: 6.00 Build 0)  -->
<svg version="1.2" baseProfile="tiny" id="Layer_1" xmlns="http://www.w3.org/2000/svg" xmlns:xlink="http://www.w3.org/1999/xlink"
	 x="0px" y="0px" width="425.201px" height="425.199px" viewBox="0 0 425.201 425.199" xml:space="preserve">
<g id="Calque_1">
	<g>
		<g>
			<path fill="#FFFFFF" d="M349.727,220.466c1.913-16.157-1.488-34.016-8.079-48.686c-15.307-33.378-49.961-44.858-84.614-44.646
				c-5.528,0-5.528,8.504,0,8.504c32.952-0.213,65.693,11.055,78.662,43.796c4.89,12.756,7.229,27.638,5.74,41.244
				C340.586,225.781,349.09,225.781,349.727,220.466L349.727,220.466z"/>
		</g>
	</g>
	<g>
		<g>
			<path fill="#FFFFFF" d="M292.538,203.671c0.638-15.308-2.552-31.678-8.717-45.709c-12.331-28.063-38.056-42.095-68.244-42.521
				c-5.528,0-5.528,8.504,0,8.504c28.913,0.426,52.087,14.457,62.291,41.883c4.252,11.905,6.804,25.087,6.166,37.63
				C283.821,209.198,292.325,209.198,292.538,203.671L292.538,203.671z"/>
		</g>
	</g>
	<path fill="#B79D7B" d="M127.347,168.379c0-0.851,0.213-1.488,0.213-2.339"/>
	<g>
		<g>
			<path fill="#FFFFFF" d="M75.685,220.466c-1.488-13.606,0.638-28.488,5.74-41.244c12.756-32.74,45.709-44.009,78.662-43.796
				c5.528,0,5.528-8.504,0-8.504c-34.653-0.213-69.308,11.48-84.614,44.646c-6.804,14.669-9.992,32.527-8.079,48.686
				C67.819,225.781,76.323,225.993,75.685,220.466L75.685,220.466z"/>
		</g>
	</g>
	<g>
		<g>
			<path fill="#FFFFFF" d="M132.875,203.671c-0.638-12.544,1.701-25.938,6.166-37.631c9.992-27.425,33.378-41.457,62.292-41.882
				c5.527,0,5.527-8.504,0-8.504c-30.189,0.425-55.914,14.457-68.245,42.52c-6.165,14.032-9.354,30.402-8.717,45.709
				C124.584,209.198,133.088,209.198,132.875,203.671L132.875,203.671z"/>
		</g>
	</g>
	<g>
		<g>
			<path fill="#FFFFFF" d="M204.521,116.93c0,24.023,0,48.261,0,72.284c0,5.527,8.504,5.527,8.504,0c0-24.023,0-48.261,0-72.284
				C213.025,111.403,204.521,111.403,204.521,116.93L204.521,116.93z"/>
		</g>
	</g>
	<path fill="#B79D7B" d="M215.789,249.805c3.402,5.315,10.843,4.04,16.158,4.465c-8.717-3.827-23.174-15.732-17.009-26.788
		c4.253-7.653,18.071-2.764,18.071,5.315c4.04-1.701,3.189-5.74-0.425-7.229c10.63-3.401,11.055-11.48,0-13.819
		c7.653-2.976-1.063-8.078-5.527-6.59c-2.339,0.85-8.717,11.48-11.693,7.229c0.638-1.488-0.213-2.765,1.488-4.253
		c2.126-2.126,5.103-3.613,6.803-6.165c3.614-5.314-3.826-13.181-6.378-5.953c-2.977-9.354-11.692-10.63-13.818,0
		c-3.189-7.228-8.505,0.426-7.017,5.315c1.276,4.465,10.418,6.591,8.292,11.693h-0.213c-3.401,2.338-7.866-5.315-10.417-7.229
		c-5.103-4.04-14.032,2.551-6.804,5.952c-9.992,3.189-8.929,10.205,0,13.819c-3.401,1.488-4.677,5.953-0.213,7.229
		c-1.275-9.142,19.135-12.969,19.56-3.189c0.425,9.354-11.268,21.261-19.347,24.449c13.819-1.062,18.709-5.527,22.323-18.921
		C210.899,240.45,212.812,245.34,215.789,249.805"/>
	<path fill="#B79D7B" d="M150.095,255.545c4.04,3.827,9.992,1.488,14.67,1.063c-6.591-0.638-14.882-3.827-17.221-10.843
		c-1.063-3.189-1.063-7.016-1.063-10.418c0-3.188-2.977-3.614-4.89-5.952c-4.465-5.103,8.504,1.488,9.779,1.488
		c4.252-0.213,9.567-5.74,2.977-7.017c7.866-4.677,4.678-11.905-4.039-11.48c5.314-4.89-3.614-7.866-7.229-3.401
		c-0.638,0.851-5.953,14.457-7.229,7.441c-0.638-4.252,5.527-7.016,4.04-12.118c-1.063-4.252-6.166-6.591-7.017-0.851
		c-1.7-3.189-5.952-7.441-9.566-4.465c-1.701,2.552-1.701,5.315-1.488,8.292c-4.678-4.891-7.016,2.764-4.252,6.378
		c2.126,2.764,10.843,3.188,10.417,7.653c-1.7,4.039-9.142-3.401-11.905-3.614c-4.465,0-9.567,6.165-2.764,7.229
		c-7.654,4.89-4.678,12.118,4.039,11.48c-3.827,3.614,0.425,6.803,4.465,5.527c4.252-1.488,5.74-7.229,6.803-11.055h0.213v-0.213
		c3.827,0.425,0.851,3.401,1.701,5.953c1.062,3.401,4.039,5.314,5.102,8.716c2.339,7.441-3.826,14.457-9.354,18.284
		c15.944-4.04,12.543-16.37,12.543-30.189C141.379,241.088,142.655,251.08,150.095,255.545 M115.867,232.159l-4.465,2.126"/>
	<path fill="#B79D7B" d="M315.499,281.696c0,0-40.606-21.686-105.024-21.686c-61.017,0-107.15,24.661-107.788,24.874
		c-7.654,3.614-3.402,10.843-2.765,11.905c2.765,3.614,6.804,6.804,10.631,5.528c8.716-2.977,53.149-19.984,99.284-19.984
		c38.905,0,63.567,8.291,98.434,18.283C324.853,305.506,330.381,286.797,315.499,281.696z"/>
	<path fill="#FFFFFF" d="M306.782,306.57c0,1.488-46.984,11.692-98.859,11.692c-51.874,0-90.992-9.992-90.992-11.48
		c0-1.487,40.606-19.134,92.48-19.134C261.286,287.648,306.782,305.294,306.782,306.57z"/>
	<path fill="#B79D7B" d="M140.103,243.427l-0.212-0.638c0.212,6.378-0.213,12.756-2.977,18.709
		c4.039-1.063,8.291-1.701,12.543-2.552C144.355,255.545,140.529,249.38,140.103,243.427"/>
	<path fill="#B79D7B" d="M278.294,249.38c0-1.914,0-3.827,0.213-5.528c-2.339,6.166-5.528,11.269-11.48,14.67
		c4.464,0.425,8.929,1.488,13.394,2.339C278.931,257.246,278.081,253.419,278.294,249.38"/>
	<path fill="#FFFFFF" d="M344.625,238.324c0.213-0.638-1.275-1.913-1.488-2.126v-0.213c-3.826-1.7-8.716,2.339-5.314,6.166
		C340.586,245.128,345.475,242.365,344.625,238.324 M340.161,241.301C339.522,240.876,339.522,240.876,340.161,241.301"/>
	<path fill="#FFFFFF" d="M214.726,220.254c1.488-5.528-5.527-9.567-9.142-4.891C200.907,220.892,211.75,227.907,214.726,220.254"/>
	<path fill="#FFFFFF" d="M137.764,222.805c-1.487-1.488-2.551-3.401-5.102-2.764c-3.827,0-1.063,2.764-3.827,3.188
		C128.411,231.096,139.891,230.246,137.764,222.805"/>
	<path fill="#B79D7B" d="M83.34,238.113c2.338,1.062,5.527,0.212,8.078,0c-2.551,0.425-5.74,0-7.653,1.913
		c1.913,0,3.827-0.213,5.527-0.213c-2.338-0.213-5.314,0-6.378,2.339c2.977-0.426,5.953,2.764,8.292,5.103
		c4.89,4.464,12.543-1.701,6.378-4.252c6.803-1.701,6.165-10.63-1.063-10.843c4.252-2.764,0.426-6.591-3.401-5.74
		c-4.252,0.851-3.614,7.016-7.441,8.291c-1.275,0.426,0.638-14.031-3.826-15.095c-1.701,1.276-2.552,2.977-2.977,5.103
		c-1.063-3.401-12.544-11.055-10.418-4.252c-2.338-1.275-5.314-2.338-8.078-1.488c4.89,5.103,8.504,14.032,14.031,17.434
		 M71.433,218.34l1.063,0.426"/>
	<path fill="#B79D7B" d="M105.237,270.215l4.465-1.276c-6.804,0.213-13.819-1.7-17.858-7.653
		c-3.401-5.103-4.04-17.646-12.544-16.795c1.701,3.614,5.315,5.527,7.441,8.716c3.188,4.465,4.465,9.78,6.591,14.457
		C96.307,273.829,99.922,272.341,105.237,270.215"/>
	<path fill="#B79D7B" d="M281.695,256.396c0.851,6.165,6.591,6.165,11.48,7.441c-5.527-4.253-12.543-12.757-8.717-19.985
		c1.063-2.126,4.678-3.613,4.465-6.165c-0.213-2.764-2.551-5.314,0.851-7.016c3.401,2.551,2.977,7.653,7.016,9.779
		c2.764,1.488,8.929,0.213,4.89-3.614c3.189,0.213,6.378-0.212,8.717-2.126c1.913-4.039-1.7-7.44-4.89-9.354
		c6.378-1.062,2.339-7.229-2.126-7.44c-1.488,0-13.182,7.44-12.544,2.764c0.638-3.614,8.079-3.614,10.205-6.165
		c2.977-3.614,1.063-11.693-4.039-6.591c1.062-9.354-6.591-12.331-11.269-3.614c-1.062-7.229-8.716-1.488-6.803,3.614
		c0.851,2.126,6.378,11.268,1.062,11.268c-3.401-0.638-2.338-9.354-7.228-11.056c-3.614-1.275-8.717,1.276-4.678,4.891
		c-8.717-0.426-11.905,6.59-4.039,11.48c-3.189,0.638-4.678,3.614-2.339,6.165c3.401,3.401,8.717,0.638,11.693-1.488
		c6.803-5.103,2.126,4.039-3.189,5.103c10.205,9.992-6.591,22.11-15.945,22.961c18.071,1.913,18.709-9.354,25.513-22.323
		C280.844,241.726,279.782,249.167,281.695,256.396"/>
	<path fill="#B79D7B" d="M339.097,244.49c-1.063,0.425-2.126-1.701-2.551-2.126c-1.914,2.764-5.103,4.464-6.591,7.44
		c-1.914,3.614-0.426,7.866-2.764,11.48c-4.04,6.378-12.757,7.653-19.772,7.016c4.04,1.275,10.205,4.89,14.457,4.678
		c3.614-0.213,4.89-8.717,5.953-11.268C328.68,259.797,336.334,244.49,339.097,244.49"/>
	<path fill="#FFFFFF" d="M281.482,226.844c0.213,0.426,0.426,0.851,0.851,1.063c1.913,1.275,4.039,1.7,6.166,0.212
		C296.365,220.041,276.593,216.64,281.482,226.844"/>
	<path fill="#B79D7B" d="M92.268,259.159c6.591,13.819,28.488,8.93,37.418,0.213c3.401-3.401,5.314-9.78,4.465-14.457
		c-1.914-9.567-13.182-8.504-15.732,0c-1.914,6.378,11.268,6.378,7.016-0.425c6.378,5.74-1.275,13.606-6.804,15.944
		c-7.44,3.402-14.669-4.677-21.897-1.488c0,2.339,3.827,4.252,5.527,5.315c-3.188-0.425-6.803-2.551-7.229-6.165
		c1.275-1.063,2.764-1.488,4.252-1.488C103.324,250.018,87.803,246.828,92.268,259.159 M126.923,241.939
		c-0.213-0.425-0.426-0.638-0.851-0.638c6.165-1.488,6.165,8.717,4.89,11.905C131.175,249.167,130.962,244.49,126.923,241.939"/>
	<path fill="#B79D7B" d="M165.19,255.332c13.394,2.126,29.977-2.976,37.63-17.433c4.891-9.142-4.89-15.732-11.692-10.205
		c-9.354,7.653,8.929,14.457,8.079,4.678c3.613,8.291-12.544,15.944-18.284,17.858c-5.74,1.913-12.969,1.7-18.709-0.639
		c-3.401-1.275-5.103-7.228-8.504-7.016c0.426,2.764,1.913,4.89,3.614,7.016c-1.913-1.275-4.465-3.188-4.89-5.527
		c-0.851-3.614,3.188-2.551,4.89-5.103c3.827-5.952-4.252-6.165-7.44-3.614C139.466,244.278,156.899,255.332,165.19,255.332"/>
	<path fill="#B79D7B" d="M321.026,258.522c-8.078,0.851-15.095,5.103-22.748-0.213c-4.039-2.977-10.205-9.566-4.465-14.031
		c-2.977,6.591,6.804,7.229,7.866,2.764c0.425-1.275-2.764-8.717-8.929-7.441c-12.544,2.977-5.528,16.371-0.426,21.898
		c11.906,13.394,46.56,5.952,34.017-11.056c-4.252-2.126-8.504,5.315-4.252,6.378c6.165,1.701-2.552,6.591-4.89,7.229
		C319.538,262.561,322.94,261.498,321.026,258.522"/>
	<path fill="#B79D7B" d="M233.01,253.419c8.93,2.339,19.772,4.039,28.488,0.213c4.465-1.914,7.654-5.527,8.93-9.992
		c1.275-3.827-0.213-14.457-6.378-9.567c-3.827,1.275-0.851,6.378,1.913,7.016c1.063,3.827-7.653,11.693-4.465,8.504
		c-7.866,8.079-47.835-6.59-41.244-17.646c-1.062,5.527,6.378,7.441,9.992,4.252c6.165-5.527-3.401-11.055-8.504-9.992
		C204.521,229.608,225.356,250.868,233.01,253.419"/>
	<path fill="#B79D7B" d="M359.932,216.427c-2.764-0.426-5.315,0.425-7.653,1.913c2.338-7.229-9.354,1.488-10.631,4.252
		c-0.212-5.952-7.44-4.89-6.59,0.851c0,0.425,4.464,11.905,0.638,9.142c-2.764-1.913-3.614-6.378-6.804-7.44
		c-3.826-1.276-9.566,1.913-4.465,5.103c-7.228,0.212-8.078,9.354-1.062,10.842c-6.591,1.701,0.213,8.93,6.591,4.04
		c5.74-4.252,10.843-5.74,1.7-7.229c1.914,0,3.827,0.213,5.528,0.213c-1.914-1.914-5.315-1.488-7.654-1.914
		c2.552,0.213,5.103,0.426,7.654,0.638c-1.701-1.062-3.402-1.488-5.315-1.7c4.678,1.913,14.882-1.063,18.496-4.252
		C354.617,227.057,357.594,221.317,359.932,216.427"/>
	<path fill="#B79D7B" d="M122.458,180.923"/>
	<circle fill="#B79D7B" cx="209.199" cy="116.08" r="17.646"/>
	<path fill="#B79D7B" d="M205.372,95.883c2.339-0.213,4.252-0.426,6.591,0c0-4.253,0-12.757,0-12.757s9.142,0.213,12.33,0.213
		v-6.378h-12.33v-9.567h-6.591v9.567h-11.056v6.591l11.056-0.213V95.883"/>
	<path fill="#B79D7B" d="M185.6,81.213c2.551,1.488,8.716,0.213,5.102-3.401C188.576,75.686,184.324,78.237,185.6,81.213"/>
	<circle fill="#FFFFFF" cx="188.364" cy="79.725" r="3.401"/>
	<circle fill="#FFFFFF" cx="229.821" cy="79.725" r="3.401"/>
	<circle fill="#FFFFFF" cx="208.986" cy="62.079" r="3.401"/>
	<path fill="#FFFFFF" d="M79.937,243.427c0.851-1.913,4.678-3.614,1.701-6.378c-1.701-1.488-4.465-1.488-6.378-0.213
		C73.135,240.026,75.26,244.702,79.937,243.427 M79.512,240.876C78.662,241.301,78.662,241.301,79.512,240.876"/>
</g>
</svg>
