<?xml version="1.0" encoding="utf-8"?>
<!-- Generator: Adobe Illustrator 16.0.0, SVG Export Plug-In . SVG Version: 6.00 Build 0)  -->
<!DOCTYPE svg PUBLIC "-//W3C//DTD SVG 1.1//EN" "http://www.w3.org/Graphics/SVG/1.1/DTD/svg11.dtd">
<svg version="1.1" id="Layer_1" xmlns="http://www.w3.org/2000/svg" xmlns:xlink="http://www.w3.org/1999/xlink" x="0px" y="0px"
	 width="425.201px" height="425.199px" viewBox="0 0 425.201 425.199" enable-background="new 0 0 425.201 425.199"
	 xml:space="preserve">
<g id="Calque_1">
	<g>
		<path fill="#FFFFFF" d="M338.46,206.222c-4.465,0-7.016,0-11.268,0s-9.354-2.764-10.418-4.039
			c-1.275-1.275-3.188-4.252-4.677-6.378s-6.166-12.118-15.521-16.796c0-5.103,0.213-10.417,2.764-14.457
			c2.552-4.039,1.276-8.078-3.826-8.291c-4.89-0.213-10.63-4.039-26.788,13.182c-19.134-15.308-42.308-24.024-77.174-24.024
			c-35.717,0-56.977,6.378-68.244,22.961c-1.488-1.701-3.614-3.614-6.591-4.89c-3.401-1.488-6.804-1.913-10.843-1.488
			c-0.425,0-1.275,0.213-2.126,0.425c-1.913-2.126-4.039-3.826-5.953-5.102l-0.425-0.213c-2.551-1.488-5.953-3.827-9.992-3.401
			c-2.764,0.212-5.527,1.275-8.079,3.188c-1.488,1.063-2.977,2.339-4.039,4.465c-0.638,0.851-0.851,1.701-0.851,2.339
			c0,1.062,1.913,3.188,4.252,3.188s4.04-1.7,4.252-2.126c0.213-0.213,0.638-0.638,1.063-0.851c1.488-1.062,2.764-1.488,3.826-1.488
			c1.276-0.212,3.402,1.276,4.891,2.126l0.425,0.213c0.425,0.213,0.851,0.638,1.275,0.851c-2.764,1.488-5.314,3.614-7.229,6.591
			c-2.764,4.464-1.913,7.866-0.851,9.992c1.488,2.764,4.04,4.465,7.229,4.89c3.827,0.638,7.866-0.851,10.843-3.614
			c3.827-3.614,4.465-7.229,4.465-9.567c0-1.062-0.213-2.338-0.425-3.401c1.7,0,3.401,0.213,4.89,0.851
			c1.7,0.638,3.188,1.913,4.677,4.039c0.213,0.426,0.638,0.851,0.851,1.063c-3.827,9.354-5.74,21.473-5.74,36.354
			c0,1.062,0,1.913,0.213,2.977c0.212,1.488,0.212,1.488,0.212,2.764c2.126,21.897,5.103,38.693,7.229,44.646
			c2.339,6.591,12.756,34.441,17.434,36.355c6.378,2.551,18.709,1.487,18.709-7.017c0-6.803-2.764-29.764,3.188-44.646
			c5.103-4.252,14.67-9.567,27-2.339c18.497,10.843,25.087,20.197,36.355,22.323c2.551,0.425,5.314,0.851,8.504,1.062
			c0.425,1.276,0.638,1.914,0.638,1.914s2.339,8.717,4.89,15.52c2.764,6.803,8.291,15.732,15.308,15.732
			c7.016,0,15.732,1.062,14.882-8.079s-3.827-14.244-0.638-20.196c3.188-5.953,8.929-11.269,16.582-11.269
			c7.654,0,24.237-8.291,27.852-10.843c3.614-2.764,29.977-14.244,22.11-16.582c0,0,6.803-2.339,7.866-12.544
			C342.287,212.388,342.925,206.222,338.46,206.222z M98.434,177.096c-1.063,1.062-2.552,1.488-3.827,1.275
			c-0.638,0-0.638-0.213-0.851-0.425c0,0,0-0.426,0.638-1.275c1.275-1.914,3.189-3.402,5.527-4.253
			c0.213,0.639,0.213,1.063,0.426,1.701C100.347,174.97,99.71,176.032,98.434,177.096z M303.805,213.026
			c-3.053,0-5.527-2.476-5.527-5.528s2.475-5.527,5.527-5.527s5.528,2.475,5.528,5.527S306.858,213.026,303.805,213.026z"/>
	</g>
	<g>
		<circle fill="#FFFFFF" cx="304.656" cy="208.135" r="2.764"/>
	</g>
	<g>
		<ellipse fill="#FFFFFF" cx="198.568" cy="137.127" rx="15.095" ry="15.095"/>
		<path fill="#B79D7B" d="M198.568,152.722c-8.599,0-15.594-6.996-15.594-15.595s6.995-15.595,15.594-15.595
			c8.599,0,15.595,6.996,15.595,15.595S207.167,152.722,198.568,152.722z M198.568,122.532c-8.047,0-14.594,6.547-14.594,14.595
			s6.547,14.595,14.594,14.595c8.047,0,14.595-6.547,14.595-14.595S206.615,122.532,198.568,122.532z"/>
	</g>
	<g>
		<g>
			<g>
				<path fill="#B79D7B" d="M183.261,169.23c10.417-5.953,23.599-4.89,34.016,0c3.189,1.488,5.74-3.189,2.764-4.678
					c-12.118-5.527-27.213-7.016-39.331,0C177.734,166.466,180.285,170.931,183.261,169.23L183.261,169.23z"/>
			</g>
		</g>
	</g>
	<g>
		<circle fill="#B79D7B" cx="198.568" cy="137.127" r="12.543"/>
	</g>
	<g>
		<ellipse fill="#FFFFFF" cx="179.434" cy="101.198" rx="15.095" ry="15.095"/>
		<path fill="#B79D7B" d="M179.434,116.792c-8.599,0-15.595-6.996-15.595-15.595s6.996-15.595,15.595-15.595
			s15.595,6.996,15.595,15.595S188.033,116.792,179.434,116.792z M179.434,86.603c-8.047,0-14.595,6.547-14.595,14.595
			s6.547,14.595,14.595,14.595s14.595-6.547,14.595-14.595S187.482,86.603,179.434,86.603z"/>
	</g>
	<g>
		<circle fill="#B79D7B" cx="179.434" cy="101.198" r="12.543"/>
	</g>
	<g>
		<ellipse fill="#FFFFFF" cx="205.585" cy="77.386" rx="15.094" ry="15.094"/>
		<path fill="#B79D7B" d="M205.585,92.981c-8.599,0-15.595-6.996-15.595-15.595c0-8.599,6.996-15.594,15.595-15.594
			c8.599,0,15.594,6.995,15.594,15.594C221.178,85.985,214.183,92.981,205.585,92.981z M205.585,62.792
			c-8.047,0-14.595,6.547-14.595,14.594c0,8.047,6.547,14.595,14.595,14.595c8.047,0,14.594-6.547,14.594-14.595
			C220.178,69.339,213.632,62.792,205.585,62.792z"/>
	</g>
	<g>
		<circle fill="#B79D7B" cx="205.585" cy="77.386" r="12.543"/>
	</g>
</g>
</svg>
