<?xml version="1.0" encoding="utf-8"?>
<!-- Generator: Adobe Illustrator 16.0.0, SVG Export Plug-In . SVG Version: 6.00 Build 0)  -->
<!DOCTYPE svg PUBLIC "-//W3C//DTD SVG 1.1//EN" "http://www.w3.org/Graphics/SVG/1.1/DTD/svg11.dtd">
<svg version="1.1" id="Layer_1" xmlns="http://www.w3.org/2000/svg" xmlns:xlink="http://www.w3.org/1999/xlink" x="0px" y="0px"
	 width="425.201px" height="425.199px" viewBox="0 0 425.201 425.199" enable-background="new 0 0 425.201 425.199"
	 xml:space="preserve">
<g id="Calque_1">
	<path fill="#FFFFFF" d="M274.042,210.474c-10.843-4.039-25.938-14.669-34.441-24.023c-16.37-18.496,4.465-31.252,4.465-31.252
		c16.795-11.056,26.575-29.552,18.283-35.717c-12.543-9.354-57.189,33.378-57.189,33.378l-6.591,6.591
		c-1.488-6.378-4.89-12.757-10.204-18.284c-12.544-12.543-30.402-14.669-40.182-4.89c-9.992,9.567-7.866,27.426,4.677,39.969
		c5.315,5.315,11.906,8.93,18.284,10.205l-6.591,6.591c0,0-42.732,44.646-33.378,57.189c6.165,8.291,24.661-1.488,35.717-18.284
		c0,0,12.969-20.835,31.252-4.465c9.567,8.505,20.197,23.387,24.023,34.441c7.866,21.686,16.796,68.245,35.292,66.97
		c18.283-1.063-5.953-76.962-5.953-76.962s-0.425-4.039,1.276-7.44c0.212-0.638,0.638-1.063,1.062-1.488
		c0.213-0.213,0.425-0.426,0.638-0.638c0.213-0.213,0.426-0.426,0.638-0.639c0.426-0.425,0.851-0.638,1.488-1.062
		c3.401-1.701,7.441-1.275,7.441-1.275s75.898,24.449,76.961,5.952C342.074,227.27,295.514,218.34,274.042,210.474z
		 M165.616,167.529c-5.315,5.315-13.606-2.977-8.292-8.291C162.851,153.922,170.93,162.214,165.616,167.529z M179.01,153.497
		c-5.315,5.314-13.606-2.977-8.292-8.291C176.246,139.891,184.324,148.182,179.01,153.497z"/>
	
		<rect x="262.133" y="167.655" transform="matrix(0.9299 0.3678 -0.3678 0.9299 88.9936 -83.9766)" fill="#FFFFFF" width="5.315" height="47.621"/>
	
		<rect x="198.172" y="215.445" transform="matrix(0.5145 0.8575 -0.8575 0.5145 302.6724 -56.0471)" fill="#B79D7B" width="5.315" height="47.621"/>
	
		<rect x="182.086" y="136.159" transform="matrix(0.6079 0.794 -0.794 0.6079 191.7439 -110.6588)" fill="#B79D7B" width="51.661" height="5.315"/>
	
		<rect x="115.393" y="126.097" transform="matrix(0.473 0.8811 -0.8811 0.473 187.8713 -56.5731)" fill="#FFFFFF" width="51.664" height="5.315"/>
	
		<rect x="197.278" y="115.191" transform="matrix(0.1441 0.9896 -0.9896 0.1441 307.5795 -119.9141)" fill="#FFFFFF" width="51.663" height="5.315"/>
	
		<rect x="148.018" y="168.162" transform="matrix(0.1962 0.9806 -0.9806 0.1962 319.8799 15.1876)" fill="#FFFFFF" width="5.315" height="69.098"/>
	
		<rect x="103.873" y="146.724" transform="matrix(0.9693 0.2458 -0.2458 0.9693 40.5682 -26.2538)" fill="#B79D7B" width="43.157" height="5.314"/>
	<path fill="#B79D7B" d="M225.143,160.726c-1.275,1.062-2.977,1.062-3.614,0.213c-0.638-0.851,0.426-2.977,1.701-4.04
		c1.275-1.062,1.701,0,2.551,0.851C226.419,158.387,226.419,159.662,225.143,160.726z"/>
	<path fill="#B79D7B" d="M148.82,154.773c0,1.275-1.062,2.552-2.551,2.552c-1.276,0-2.552-1.063-2.552-2.552
		c0-1.275,1.701-2.977,3.189-2.764C148.82,152.647,148.82,153.497,148.82,154.773z"/>
	<circle fill="#FFFFFF" cx="162.851" cy="163.702" r="2.976"/>
	<circle fill="#FFFFFF" cx="173.907" cy="149.883" r="2.977"/>
	<g>
		<path fill="#B79D7B" d="M273.616,162.852c-6.803,0-6.803,10.63,0,10.63C280.42,173.269,280.42,162.852,273.616,162.852z"/>
	</g>
	<g>
		<path fill="#B79D7B" d="M218.341,85.678c-6.804,0-6.804,10.63,0,10.63C225.143,96.095,225.143,85.678,218.341,85.678z"/>
	</g>
	<g>
		<path fill="#FFFFFF" d="M191.128,111.19c-6.804,0-6.804,10.63,0,10.63C197.93,121.608,197.93,111.19,191.128,111.19z"/>
	</g>
	<g>
		<path fill="#B79D7B" d="M126.285,98.009c-6.804,0-6.804,10.63,0,10.63C133.088,108.639,133.088,98.009,126.285,98.009z"/>
	</g>
	<g>
		<path fill="#FFFFFF" d="M101.623,137.34c-6.803,0-6.803,10.63,0,10.63C108.427,147.97,108.427,137.34,101.623,137.34z"/>
	</g>
	<g>
		<path fill="#B79D7B" d="M113.103,204.096c-6.803,0-6.803,10.63,0,10.63C119.906,214.514,119.906,204.096,113.103,204.096z"/>
	</g>
	<g>
		<path fill="#FFFFFF" d="M177.946,247.041c-6.803,0-6.803,10.63,0,10.63C184.75,257.458,184.75,247.041,177.946,247.041z"/>
	</g>
	<path fill="#B79D7B" d="M223.443,225.781c0.638,1.275,0.212,3.188-0.851,3.614c-1.063,0.425-1.701,0-2.552-1.488
		c-0.85-1.488-1.275-2.552-0.212-2.977C220.891,224.506,222.804,224.506,223.443,225.781z"/>
</g>
</svg>
