<?xml version="1.0" encoding="utf-8"?>
<!-- Generator: Adobe Illustrator 16.0.0, SVG Export Plug-In . SVG Version: 6.00 Build 0)  -->
<!DOCTYPE svg PUBLIC "-//W3C//DTD SVG 1.1//EN" "http://www.w3.org/Graphics/SVG/1.1/DTD/svg11.dtd">
<svg version="1.1" id="Layer_1" xmlns="http://www.w3.org/2000/svg" xmlns:xlink="http://www.w3.org/1999/xlink" x="0px" y="0px"
	 width="500px" height="500px" viewBox="0 0 500 500" enable-background="new 0 0 500 500" xml:space="preserve">
<g id="Calque_1">
	<path fill="#B79D7B" d="M332.75,376.75h-142.5c-4.75,0-8.75-4-8.75-8.75v-74.5c0-4.75,4-8.75,8.75-8.75h142.5
		c4.75,0,8.75,4,8.75,8.75V368C341.5,372.75,337.5,376.75,332.75,376.75z"/>
	<path fill="#B79D7B" d="M343,394.75H183.5c-3.25,0-5.75-2.5-5.75-5.75v-3.75c0-3.25,2.5-5.75,5.75-5.75h159.25
		c3.25,0,5.75,2.5,5.75,5.75V389C348.75,392.25,346,394.75,343,394.75z"/>
	<path fill="#B79D7B" d="M320,287.25H207c-3.25,0-5.75-2.5-5.75-5.75v-3.75c0-3.25,2.5-5.75,5.75-5.75h113
		c3.25,0,5.75,2.5,5.75,5.75v3.75C325.5,284.75,323,287.25,320,287.25z"/>
	<path fill="#B79D7B" d="M298.75,276c0,17.25-15.75,38.5-35,38.5s-35-21.5-35-38.5c0-17.25,15.75-31,35-31S298.75,259,298.75,276z"
		/>
	<rect x="201.5" y="296.5" fill="#FFFFFF" width="121.5" height="70.5"/>
	<rect x="249" y="224" fill="#B79D7B" width="28.75" height="28"/>
	<rect x="243" y="208.75" fill="#B79D7B" width="40.5" height="18.5"/>
	<path fill="#B79D7B" d="M347,84.5c0,53.75-7.75,130.5-82.25,130.5c-81.5,0-82.25-76.75-82.25-130.5"/>
	<path fill="#B79D7B" d="M347.5,86H182c-3.25,0-5.75-2.5-5.75-5.75V76.5c0-3.25,2.5-5.75,5.75-5.75h165.5c3.25,0,5.75,2.5,5.75,5.75
		v3.75C353.25,83.5,350.75,86,347.5,86z"/>
	<text transform="matrix(1 0 0 1 261.1826 296.4307)" fill="#B2DBD7" font-family="'ReplicaStd-Bold'" font-size="17.3498"> </text>
	<text transform="matrix(1 0 0 1 248.1826 317.1807)" fill="#B2DBD7" font-family="'ReplicaStd-Bold'" font-size="17.3498">The</text>
	<text transform="matrix(1 0 0 1 211.6826 338.1816)" fill="#B2DBD7" font-family="'ReplicaStd-Bold'" font-size="17.3498">World’s Best</text>
	<text transform="matrix(1 0 0 1 244.1826 358.9307)" fill="#B2DBD7" font-family="'ReplicaStd-Bold'" font-size="17.3498">Boss</text>
	<circle fill="#B2DBD7" cx="304.75" cy="115.75" r="30.25"/>
	<path fill="#FFFFFF" d="M337.5,109.5c-0.75-3.5,1.25-8-0.5-11.25s-6.5-4-9.25-6.5s-3.75-7.25-7-8.75s-7.75,0.5-11.25,0
		s-7.25-3.75-10.75-3s-5.75,5-9,6.75s-8,1.25-10.5,4s-1.75,7.5-3.5,10.75c-1.5,3.25-5.75,5.75-6.25,9.5c-0.5,3.5,3,7,3.5,10.75
		c0.75,3.5-1.25,8,0.5,11.25s6.5,4,9.25,6.5s3.75,7.25,7,8.75s7.75-0.5,11.25,0s7.25,3.75,10.75,3s5.75-5,9-6.75s8-1.25,10.5-4
		s1.75-7.5,3.25-10.75s5.75-5.75,6.25-9.5C341.5,116.5,338.25,113,337.5,109.5z M305.25,144c-15.5,0-28.25-12.75-28.25-28.25
		s12.75-28.25,28.25-28.25s28.25,12.75,28.25,28.25S321,144,305.25,144z"/>
	<path fill="#B2DBD7" d="M313.25,154c-3.5,0.75-7.25-2.5-10.75-3s-7.5,1.75-10.75,0c-0.25-0.25-0.5-0.25-0.5-0.5v26l16.25-11.25
		l16.25,11.25v-29.75c0,0.25-1,0.25-1.25,0.5C319,149,316.75,153.5,313.25,154z"/>
	<circle fill="none" stroke="#B79D7B" stroke-miterlimit="10" cx="305.5" cy="115.5" r="25.25"/>
	<path fill="#B79D7B" d="M176.75,149.5c-29-20.5-19-39-17.75-41c7.75-9.5,19.75-4.25,24.5-1.5c0,0-0.5-11.25-0.5-11.5v0.25
		c-9.5-3.75-22.75-4.75-32,6.75l-0.25,0.25c-0.25,0.25-18.25,28,20.25,54.75c14,9.75,15.5,16,14.25,17.75c-0.75,1.5-3.25,2-4.25,2
		c-1-2.25-3.5-3.5-5.75-2.75c-2.75,0.75-4.25,3.5-3.75,6c1,4,4.5,6.5,9.25,6.75c0.5,0,0.75,0,1.25,0c4.25-0.25,8.75-2.25,11.25-6
		C193,183.75,201.75,167.25,176.75,149.5z"/>
	<path fill="#B79D7B" d="M348.5,149.5c29-20.5,19-39,17.75-41c-7.75-9.5-19.75-4.25-24.5-1.5c0,0,0.5-11.25,0.5-11.5v0.25
		c9.5-3.75,22.75-4.75,32,6.75l0.25,0.25c0.25,0.25,18.25,28-20.25,54.75c-14,9.75-15.5,16-14.25,17.75c0.75,1.5,3.25,2,4.25,2
		c1-2.25,3.5-3.5,5.75-2.75c2.75,0.75,4.25,3.5,3.75,6c-1,4-4.5,6.5-9.25,6.75c-0.5,0-0.75,0-1.25,0c-4.25-0.25-8.75-2.25-11.25-6
		C332.25,183.75,323.25,167.25,348.5,149.5z"/>
	<line fill="none" stroke="#B2DBD7" stroke-miterlimit="10" x1="181" y1="283.75" x2="341" y2="283.75"/>
	<line fill="none" stroke="#B2DBD7" stroke-miterlimit="10" x1="181" y1="271.25" x2="341" y2="271.25"/>
</g>
</svg>
