<?xml version="1.0" encoding="utf-8"?>
<!-- Generator: Adobe Illustrator 16.0.0, SVG Export Plug-In . SVG Version: 6.00 Build 0)  -->
<!DOCTYPE svg PUBLIC "-//W3C//DTD SVG 1.1//EN" "http://www.w3.org/Graphics/SVG/1.1/DTD/svg11.dtd">
<svg version="1.1" id="Calque_1" xmlns="http://www.w3.org/2000/svg" xmlns:xlink="http://www.w3.org/1999/xlink" x="0px" y="0px"
	 width="425.201px" height="425.199px" viewBox="0 0 425.201 425.199" enable-background="new 0 0 425.201 425.199"
	 xml:space="preserve">
<path fill="#1200FF" d="M383.956,199.844c0,0-4.677-6.165-3.188-12.756c1.7-6.378-7.229-19.771-7.866-22.323
	c-0.638-2.551-4.678-25.938-5.103-38.48c-0.426-12.756-4.678-22.535-4.678-22.535s-11.905-44.646-50.599-32.315
	c0,0-25.087-2.126-29.339,24.236s-8.717,30.401-8.717,30.401s-8.079,12.756-5.314,19.772c2.764,7.016,5.527,18.283,3.401,21.897
	s-10.205,18.283-7.866,23.174c2.339,4.89,4.677,6.803,4.465,14.456c-0.213,7.654-8.504,10.63-10.205,17.434
	c-1.701,6.803-6.378,10.205,1.913,17.434c8.504,7.228,15.095,2.338,17.646,8.504c2.551,6.165-4.678,37.205,10.842,17.221
	c1.914-2.339,5.103-2.552,9.78-7.017c4.677-4.464,5.952-18.07,4.677-23.599c-1.062-4.89,7.866-9.992,8.505-16.582
	c0.85-9.143-0.639-25.087-10.631-34.867c-4.465-4.252-3.614-6.378-3.401-14.244s-4.465-6.378-6.378-9.779
	c-0.638-1.275,0.638-7.441-1.063-11.693c-2.126-5.527-7.653-5.952-4.039-17.008c3.614-11.055,5.527-19.984,4.039-24.449
	c-1.7-4.464-2.126-22.322,8.292-24.448c10.417-2.126,17.221-1.488,17.221-1.488s3.614-1.914,12.118,0.212
	s14.244,7.866,12.969,18.071s1.488,31.89,4.039,35.079c2.552,3.189-1.062,8.079-1.701,14.031c-0.638,5.528,1.701,5.315-0.638,11.056
	c-1.913,4.465-4.464,4.039-4.464,9.566c0,5.528,4.464,9.354,1.062,15.521c-3.614,6.803-11.48,12.756-8.504,30.401
	c3.189,17.646,8.717,16.583,11.268,22.536c1.914,4.677-1.7,14.031-0.851,21.685c0.851,7.654,22.536,17.646,28.063-4.464
	c0,0,9.567,11.055,15.52,0.638C391.184,244.278,407.98,218.766,383.956,199.844z"/>
<path fill="#1200FF" d="M194.742,149.245c-0.851-0.638-2.339,0.213-3.189,0.425c-0.851,0.213-1.488,0.426-2.339,0.638
	c-0.85,0-1.913,0.213-2.764,0.426c-2.551,0.425-5.527,1.275-7.44,3.188l-0.213,0.213c-0.213,0-0.425,0.213-0.638,0.213
	c-0.851,0.425-0.213,1.7,0.638,1.275c1.913-0.851,3.827-1.488,5.527-2.126c1.488-0.638,2.764-1.275,4.252-1.701
	c1.276-0.212,2.552-0.212,3.827,0c0.851,0,2.126,0.213,2.551-0.851C195.593,150.308,195.38,149.458,194.742,149.245z"/>
<path fill="#1200FF" d="M217.703,146.269c-1.276-0.425-2.765-0.851-4.252-0.851c-1.488,0-2.977,0.426-4.678,0.851
	c-2.764,0.638-5.953,0.425-8.504,1.701l0,0c-1.701-0.213-2.339,3.188,0.851,2.764c2.551-0.426,5.527-0.851,8.079-1.701
	c2.764-1.062,5.102-1.7,8.078-1.062C218.128,147.757,218.552,146.482,217.703,146.269z"/>
<g id="XMLID_2_">
	<g>
		<path fill="#1200FF" d="M140.954,108.639L140.954,108.639c-0.213-1.063,0.213-2.764,0.213-3.614c0-1.701,0-3.614,0-5.315
			c0-4.039,0-8.079,0-11.905c0-2.552,0-5.103,0-7.653c0-1.488,0-2.765,0.212-4.252c0.213-1.914,0.851-3.614,1.276-5.528
			c0.638-2.764,1.062-5.74,2.338-8.291c0.851-2.126,1.914-4.252,3.189-6.166c1.701-2.338,3.827-4.677,5.527-7.016
			c1.913-2.338,4.04-4.464,6.378-6.165c1.914-1.488,3.827-2.764,5.953-3.614c2.339-1.063,4.89-1.275,7.229-1.913
			c2.551-0.851,5.314-1.701,7.866-2.126c2.551-0.638,5.314-0.638,7.866-0.851c1.062,0,2.126-0.213,3.188,0
			c1.063,0,1.914,0.425,2.977,0.638c2.339,0.638,4.678,1.275,7.016,2.126c1.276,0.425,2.764,0.638,4.04,1.275
			c1.275,0.638,2.338,1.063,3.614,1.701c0.85,0.425,1.7,0.851,2.551,1.275s1.488,1.063,2.126,1.701
			c1.488,1.275,2.764,2.976,4.252,4.464c1.913,2.126,3.827,3.827,5.527,6.166c0.638,1.062,1.276,1.913,1.914,2.977
			c0.638,0.85,1.275,1.7,1.7,2.764c0.638,1.275,1.063,2.551,1.701,3.826c0.638,1.488,1.488,2.764,1.913,4.252
			c0.426,1.063,1.063,2.126,1.488,2.977c0.426,0.638,0.426,1.488,0.851,2.339c0.213,0.638,0.638,1.275,1.063,2.126
			c0.212,0.851,0.638,1.701,0.85,2.551c0.638,1.914,0.638,4.04,1.276,5.953c0,0.425,0.212,0.425,0,0.851
			c-0.213,0.638-0.851,1.062-1.063,1.488c-0.851,1.275-1.062,2.977-1.488,4.465c-0.213,1.275-0.638,2.338-0.425,3.614
			c0,0.638,0.212,1.275,0.425,1.913s0.213,1.275,0.213,1.913c0.213,1.063,0.851,2.126,1.275,3.189
			c0.213,0.425,0.213,0.851,0.425,1.275c0.213,0.638,0.213,1.275,0.213,1.913c0.213,1.063,0.213,1.914,0.638,2.977
			c0.213,0.851,0.426,1.913,0.213,2.977c-0.213,1.062-1.701,1.275-2.551,0.638c-1.276-0.851-1.701-2.764-2.339-4.039
			c-0.638-1.488-0.851-2.977-1.275-4.465c-0.426-1.275-0.851-2.764-1.063-4.039c-0.851-2.977-1.701-6.166-3.188-8.93
			c-0.426-0.851-1.701-1.488-2.339-2.126s-0.851-1.275-1.488-1.701c-0.425-0.425-1.063-0.85-1.488-1.487
			c-0.851-1.276-1.275-2.552-1.701-3.827c-0.212-0.851-0.638-1.701-1.062-2.552c-0.213-0.85-0.426-1.487-0.638-2.338
			c-0.851-2.339-1.488-4.678-2.126-7.016c-0.426-1.276-0.851-2.765-1.701-4.04c-0.638-0.851-1.275-2.126-2.126-2.764
			c-0.638-0.851-1.488-1.488-2.551-1.913c-1.488-0.638-3.189-0.638-4.678-0.638c-2.126,0-4.252,0-6.591,0.212
			c-1.913,0.213-3.614,0.638-5.314,1.276c-3.189,1.062-6.166,2.551-9.142,3.613c-1.701,0.639-3.189,1.276-4.891,1.701
			c-1.275,0.426-2.338,0.426-3.401,0.426c-1.7,0-3.188-0.426-4.677-0.426c-1.063,0-1.914,0-2.977,0.213
			c-0.638,0.213-1.275,0.425-1.913,0.638c-1.063,0.213-1.701,0.638-2.765,1.062c-1.7,1.063-3.188,1.914-4.677,2.977
			c-1.275,0.851-2.551,1.488-3.827,2.339c-1.275,0.851-2.551,1.701-3.401,2.977s-1.275,3.188-1.488,4.677
			c-0.212,2.126-0.425,4.04-0.425,6.166s0.425,4.464,0.851,6.59c0.212,1.914,0.638,3.827,1.062,5.74
			c0.213,0.851,0.213,1.701,0.213,2.552s0.213,1.7,0,2.339c-0.213,0.85-1.063,2.126-1.701,2.764
			c-0.425,0.212-0.638,0.425-1.062,0.851c-0.426,0.425-0.638,0.85-0.638,1.487c-0.213,2.765,0.85,5.315,1.275,8.079
			c0.213,1.275,0.638,2.764,0.851,4.039c0.212,1.063,0.638,1.914,1.062,2.765c0.213,0.85,0.638,1.7,0.851,2.551s0.851,2.126,0,2.551
			c-2.551,1.701-3.614-2.764-4.039-4.252c-0.426-1.487-1.276-2.764-1.701-4.039c-0.213-1.275-0.638-2.551-1.063-3.827
			c-0.425-1.7-1.062-3.401-1.487-5.314C144.143,110.127,142.229,108.851,140.954,108.639z"/>
	</g>
</g>
<path fill="#B79D7B" d="M172.632,173.269c0,0,15.52,12.331,26.787,16.158c0,0,8.504,4.464,6.591,8.078s-8.079,17.434-8.079,17.434
	l-28.913-20.835C169.017,194.104,168.38,177.734,172.632,173.269z"/>
<path fill="#B79D7B" d="M241.089,171.993c0,0-15.095,10.63-26.788,16.157c0,0-8.504,4.465-6.59,8.079
	c1.913,3.614,8.078,17.434,8.078,17.434l28.914-20.835C244.49,192.615,245.128,176.458,241.089,171.993z"/>
<g>
	<path fill="#1200FF" d="M69.733,194.53c-0.213-1.276-0.426-2.339-1.063-3.614c-0.425-1.063-0.851-2.126-1.488-2.977
		c-0.425-0.426-0.638-0.851-1.275-1.275c1.701-2.127,2.339-8.292,4.465-10.631c2.764-2.976,3.826-18.07,3.188-22.535
		s5.103-12.756,11.693-14.457c6.378-1.7,11.48,8.504,11.48,8.504v-26.362c-31.89-0.638-37.843,26.575-37.843,26.575
		s0.425,8.079-0.213,15.52c-0.425,6.591,2.339,20.197,5.103,23.599c0,0.213,0,0.426,0,0.638c0,0.213,0,0.213,0,0.426
		c0,0.212-0.213,0.425-0.213,0.638c-0.212,0.425-0.425,1.062-0.638,1.488c-0.425,1.488-0.638,2.977-0.212,4.465
		c0,0.212,0.212,0.425,0.212,0.638c-0.638,0.425-1.275,1.275-1.7,1.913c-0.639,1.275-1.063,2.977-0.851,4.465
		c0.212,0.851,0.638,1.913,1.275,2.764c-0.425,0.425-1.063,0.851-1.275,1.488c-0.213,0.638-0.426,1.275-0.426,1.7
		c-0.212,1.488-0.212,2.977,0.213,4.465c0.213,0.638,0.425,1.275,0.851,1.701c-0.213,0-0.426,0.212-0.426,0.212
		c-0.425,0.213-0.85,0.851-1.062,1.276c-0.638,1.275-0.638,2.976-0.425,4.464c0.212,0.851,0.425,1.701,0.85,2.552
		c-1.062,1.062-1.275,2.977-1.7,4.465c-0.213,1.062-0.426,1.913-0.426,2.976c0,0.851,0,1.914-0.212,2.552
		c-0.638,0.425-1.063,1.062-1.276,1.7c-0.638,1.276-0.638,2.552-0.638,4.04c0,0.851-0.212,2.339,0.213,3.188c0,0,0,0,0,0.213
		c-0.425,0.425-0.851,0.851-1.062,1.275c-0.639,1.275-0.851,2.552-1.063,3.827s-0.425,2.551,0,3.614
		c0.213,0.213,0.425,0.425,0.638,0.425c-0.425,0.638-0.851,1.275-1.275,1.914c-0.213,0.638-0.426,1.275-0.638,2.126
		c-0.213,0.85-0.213,1.7-0.426,2.551c0,0.425,0,0.638,0.213,0.851c-0.213,0.213-0.425,0.425-0.638,0.638
		c-0.638,0.851-0.851,1.488-1.275,2.551c-0.213,0.426-0.213,1.063-0.426,1.488c-0.212,0.426-0.212,1.276-0.425,1.701
		c-0.425,0.851,0.425,1.488,1.275,1.275c-0.213,0.213-0.213,0.426-0.425,0.638c-0.638,0-1.275,0.638-0.851,1.275
		c-0.213,0.639-0.425,1.063-0.638,1.701c-0.213,0.425-0.213,0.851-0.213,1.275l0,0c-0.213,0.638-0.638,1.276-0.638,1.914
		c-0.213,0.638-0.213,1.275-0.213,2.126c0,1.488,0.426,2.976,1.276,4.252c1.487,2.764,3.826,5.103,5.314,7.866
		c0.851,1.275,1.275,2.764,1.913,4.252c0.426,0.851,0.851,2.551,1.914,2.977c0.425,0.425,1.275,0,1.275-0.639
		c0.213-0.425,0-0.85,0-1.275c0-0.638,0-1.062,0-1.7c0-1.063,0.425-2.126,0.851-2.977c0.425-0.851,0.851-1.701,1.062-2.552
		c0.426-1.062,0.426-2.126,0.638-3.401c0.213-2.126,0.213-4.252-0.638-6.378c-0.638-1.701-1.7-3.401-2.977-4.89
		c-0.425-0.638-1.275-1.063-1.913-1.275c0.213-0.213,0.213-0.426,0.213-0.638c0,0,0,0,0.213-0.213
		c0.85-0.851,1.275-1.914,1.487-3.189c0.426-1.275,0.639-2.764,0.426-4.039v-0.213c1.275-1.7,2.126-4.252,1.062-6.378l0.213-0.213
		c0.638-1.062,1.275-2.551,1.275-4.039c0-1.062,0.213-2.551-0.425-3.614c0-0.213-0.213-0.425-0.426-0.425
		c0.213-0.213,0.213-0.426,0.213-0.638c0.638-1.063,1.063-2.126,1.063-3.402c0-1.275,0.425-2.764,0-3.826
		c0-0.213-0.213-0.213-0.213-0.213c0.213-0.213,0.213-0.213,0.213-0.425c0.212-0.426,0.212-0.638,0-1.063l0.638-0.213
		c1.275-2.338,0-4.89,2.126-7.44v-0.213v0.638H63.78v-0.425c0.638-1.063,0.851-2.339,0.851-3.614
		c0.213-0.638,0.425-1.275,0.638-1.913c0.213-1.063,0.425-2.126,0.425-2.977c0-0.638,0-1.275-0.212-1.914
		c0.425,0,0.638-0.212,0.638-0.638c0.212-0.638,0-1.488,0.212-2.126c0.213-0.638,0.426-1.275,0.639-1.7
		c0.212-1.276,0.212-2.552,0-4.04c0-0.212,0-0.638-0.213-0.638c0.425,0,0.851-1.062,0.851-1.062l0,0v0.212c0,0,0,0.213,0,0
		c0-0.638,0.425-1.275,0.638-1.7c0.212-0.638,0.425-1.063,0.425-1.701c0.213-1.062,0.213-2.339,0-3.401
		c0-1.063-0.638-2.126-1.275-3.189c0.213,0,0.425,0,0.638,0c1.063,0,1.701-0.638,1.488-1.7
		C69.945,196.017,69.733,195.379,69.733,194.53z M54.851,254.907C54.851,255.12,54.638,255.12,54.851,254.907L54.851,254.907z
		 M57.402,277.231C57.615,277.231,57.615,277.443,57.402,277.231c0,0.212,0,0.212,0,0.212S57.402,277.443,57.402,277.231z
		 M59.528,232.797L59.528,232.797L59.528,232.797z M63.355,206.222C63.355,206.222,63.355,206.009,63.355,206.222L63.355,206.222z
		 M65.481,204.734v0.213C65.268,204.947,65.268,204.947,65.481,204.734C65.268,204.947,65.268,204.947,65.481,204.734z
		 M55.063,255.332L55.063,255.332L55.063,255.332L55.063,255.332z M61.016,231.734L61.016,231.734c0-0.212,0-0.212,0.213-0.212
		C61.016,231.734,61.016,231.734,61.016,231.734z M66.969,202.183L66.969,202.183c0,0,0,0.212,0,0.425
		C66.969,202.395,66.969,202.395,66.969,202.183z M66.544,206.009L66.544,206.009C66.544,206.222,66.544,206.222,66.544,206.009
		C66.544,206.222,66.544,206.222,66.544,206.009z"/>
	<path fill="#B79D7B" d="M74.197,219.191c-0.212,0.638-0.212,1.275-0.425,1.701c-0.213,0.425-0.213,0.85-0.425,1.275
		c-0.213,0.213-0.213,0.638-0.426,1.062c-0.212,0.851-0.638,1.488-0.851,2.339c-0.212,0.425-0.425,1.063-0.425,1.488
		c-0.213,0.638-0.425,1.062-0.638,1.488c-0.213,0.638-0.213,1.062-0.426,1.701c-0.212,0.638-0.425,1.275-0.638,1.913
		c-0.212,0.638-0.212,1.488-0.212,2.126s0.425,1.488,0.638,2.126c0,0.213,0.212,0.638,0.212,0.851c0,0.425,0.213,0.638,0.426,1.062
		c0.213,0.426,0.213,0.638,0.425,1.063c0.213,0.425,0.213,0.851,0.426,1.275c0.212,0.425,0.638,1.062,0.851,1.488
		c0.212,0.425,0.425,1.062,0.638,1.488c0.212,0.851,0.638,1.913,1.062,2.764c0.213,0.638,0.638,1.062,0.851,1.488
		c0.213,0.425,0.425,1.062,0.851,1.7c0.638,0.851,1.275,1.914,1.7,2.765c0.426,1.062,0.851,2.126,1.488,2.976
		c0.213,0.426,0.426,0.639,0.426,1.063c0.212,0.425,0.425,0.851,0.638,1.275c0.425,0.851,0.638,1.913,1.062,2.764
		c0.213,0.426,0.638,1.914,1.276,1.701c0.212,0,0.425-0.425,0.638-0.638c0.425-0.426,0.638-1.063,1.062-1.701
		c0.638-1.062,1.488-2.126,2.126-3.188c0.638-1.063,1.488-2.126,2.126-3.189c0.638-1.062,1.275-2.126,1.701-3.188
		c0.851-1.488,1.275-3.189,1.913-4.678s0.851-2.977,1.701-4.252c0.638-1.275,1.062-2.977,1.7-4.252
		c0.213-0.638,0.638-1.275,0.851-1.913c0.213-0.426,0-0.638-0.212-0.638c-0.213,0-0.213,0-0.426-0.213
		c-0.213,0-0.213-0.213-0.425-0.213c-0.213-0.213-0.426-0.213-0.638-0.213c-0.213-0.212-0.426-0.212-0.639-0.212
		c-0.212,0-0.638,0-0.85-0.213c-0.213,0-0.426-0.213-0.638-0.213c-0.426-0.212-1.063-0.212-1.488-0.425
		c-1.276-0.425-2.339-0.851-3.614-1.275c-0.851-0.426-1.701-0.638-2.552-1.063c-0.425-0.212-0.851-0.638-1.275-0.851
		c-0.425-0.212-0.638-0.425-1.062-0.638c-0.851-0.425-1.701-0.85-2.552-1.488c-0.425-0.212-0.638-0.425-1.062-0.638
		c-0.213-0.212-0.426-0.425-0.851-0.638c-0.638-0.425-1.275-0.851-1.488-1.488c-0.426-0.851-1.275-1.7-1.701-2.764
		C74.41,221.53,74.41,220.254,74.197,219.191"/>
	<path fill="#B79D7B" d="M124.159,225.356c-0.426-0.425-0.639-0.85-1.063-1.275c-0.638-0.638-1.275-1.275-1.701-2.126
		c-0.425-0.638-1.062-1.275-1.488-1.913c-0.212-0.213-0.212-0.426-0.212-0.851c0-0.213-0.213-0.425-0.213-0.425
		c-0.213-0.426-0.213-0.851-0.425-1.276c-0.426-0.85-0.638-1.7-0.851-2.551c-0.213-0.425-0.638-0.851-0.638-1.275
		c-0.213-0.213-0.213-0.426-0.213-0.638c0,0-0.213-0.426-0.425-0.426c-0.213,0.213-0.426,0.638-0.426,0.851
		c0,0.425-0.212,0.851-0.212,1.275c0,0.638,0,1.063,0,1.701c0,0.425,0.212,0.638,0.212,1.062c0,0.213,0,0.639-0.212,0.851
		c-0.213,0.426-0.213,0.851-0.426,1.275c-0.213,0.213-0.213,0.426-0.425,0.639c-0.213,0.425-0.426,0.638-0.638,0.85
		c-0.426,0.638-0.851,1.063-1.276,1.701c-0.425,0.425-0.638,0.851-0.85,1.275c-0.426,0.426-0.851,0.851-1.276,1.063
		c-0.425,0.425-0.85,0.851-1.275,1.275c-0.213,0.213-0.425,0.425-0.638,0.638s-0.425,0.425-0.425,0.638
		c-0.426,0.426-0.851,0.851-1.276,1.063c-0.425,0.212-0.638,0.85-1.062,1.062s-0.851,0.426-1.275,0.638
		c-0.426,0.213-0.851,0.638-1.488,1.063c-0.426,0.212-0.851,0.638-1.275,0.851c-0.213,0.212-0.426,0.212-0.639,0.425
		c-0.212,0-0.425,0.213-0.425,0.213s0,0,0-0.213l-0.213,0.213c0,0.212,0.426,0.212,0.426,0.425c0.212,0.213,0.212,0.425,0.425,0.851
		c0.426,0.851,1.063,1.701,1.701,2.339s1.275,1.275,1.7,2.126c0.639,0.85,1.276,1.488,1.701,2.126s1.063,1.275,1.488,1.913
		c0.213,0.213,0.425,0.638,0.638,0.851c0.213,0.425,0.638,0.638,0.851,1.062c0.638,0.851,1.062,1.488,1.913,2.339
		s1.701,1.701,2.552,2.551c0.425,0.426,1.062,1.063,1.488,1.276c0.425,0.212,0.85,0.638,1.275,1.062
		c0.425,0.213,0.851,0.426,1.062,0.851c0.213,0.213,0.426,0.638,0.851,0.638c0.426,0.213,0.638,0.213,0.851-0.213
		c0-0.212,0.213-0.425,0.213-0.638c0-0.425,0.212-0.638,0.425-1.062c0.851-1.701,1.488-3.614,1.913-5.527
		c0.426-1.488,0.426-2.977,0.638-4.465c0.213-1.063,0.426-2.339,0.426-3.401c0-0.426,0-0.851,0.213-1.276
		c0-0.425,0-0.85,0.212-1.275c0-0.425,0-0.638,0-0.851c0-0.425,0.213-0.85,0.213-1.275c0-0.213,0-0.638,0-0.851
		c0-0.425,0.213-0.638,0.213-1.062c0-0.851,0.212-1.701,0.425-2.339c0-0.213,0-0.425,0-0.638s0-0.425,0.213-0.638
		c0-0.213,0-0.851,0-1.063C124.797,225.993,124.584,225.781,124.159,225.356z"/>
	<path fill="#B79D7B" d="M101.198,232.584L101.198,232.584C101.41,232.584,101.198,232.584,101.198,232.584z"/>
	<path fill="#1200FF" d="M145.631,268.514c-0.212-0.638-0.425-1.275-0.638-1.913c0-0.426-0.212-0.851-0.212-1.063
		c-0.213-0.638-0.426-1.275-0.638-1.913c0.425-0.638-0.213-1.275-0.851-1.275c-0.213-0.213-0.213-0.426-0.426-0.639
		c0.851,0.213,1.488-0.425,1.276-1.275c-0.213-0.425-0.213-1.062-0.426-1.488c-0.213-0.425-0.213-1.062-0.425-1.488
		c-0.213-1.062-0.638-1.913-1.275-2.551c-0.213-0.213-0.426-0.425-0.639-0.638c0.213-0.213,0.426-0.638,0.213-0.851
		c-0.213-0.851-0.425-1.488-0.425-2.339c0-0.85-0.213-1.488-0.638-2.126c-0.213-0.638-0.638-1.275-1.276-1.913
		c0.213,0,0.639-0.213,0.639-0.425c0.425-1.063,0.212-2.552,0-3.614c-0.213-1.276-0.426-2.764-1.063-3.827
		c-0.213-0.425-0.638-0.851-1.063-1.275c0,0,0,0,0-0.213c0.639-0.851,0.213-2.339,0.213-3.188c0-1.488,0-2.765-0.638-4.04
		c-0.425-0.851-0.851-1.275-1.275-1.7c-0.213-0.638-0.213-1.701-0.213-2.339c0-1.063-0.213-2.126-0.425-3.189
		c-0.213-1.488-0.638-3.401-1.701-4.464c0-0.213,0-0.213,0.213-0.426c0.213-0.638,0.638-1.275,0.638-2.126
		c0.213-1.488,0.213-3.188-0.425-4.465c-0.213-0.638-0.639-1.062-1.063-1.487c-0.213-0.213-0.425-0.213-0.425-0.213
		c0.425-0.638,0.638-1.063,0.85-1.701c0.426-1.488,0.426-2.977,0.213-4.465c0-0.638-0.213-1.275-0.425-1.7
		c-0.213-0.638-0.851-1.063-1.275-1.488c0.638-0.851,1.062-1.913,1.275-2.764c0.425-1.488,0-3.189-0.851-4.465
		c-0.425-0.851-0.851-1.488-1.701-1.913c0-0.213,0.213-0.426,0.213-0.638c0.425-1.488,0.213-2.977-0.213-4.465
		c-0.212-0.638-0.425-1.063-0.638-1.488c0-0.213-0.213-0.425-0.213-0.638s0-0.426,0-0.426c0-0.212,0.213-0.212,0.213-0.425
		c2.126-4.677,3.401-14.669,3.401-14.669s4.465-12.969-6.165-31.253c-10.63-18.283-31.04-15.944-31.04-15.944v26.362
		c6.379-10.63,17.859-1.276,20.623,2.338c2.976,3.614,0.85,6.379,1.7,13.606c0.638,6.591,6.166,18.071,7.866,20.835
		c-0.212,0.213-0.638,1.275-1.062,2.339c-0.426,1.062-0.851,2.339-1.063,3.401c-0.212,0.851-0.212,1.701,0,2.552
		c-0.212,1.062,0.426,1.7,1.488,1.7c0.213,0,0.426,0,0.426,0c-0.639,0.851-1.063,2.126-1.276,3.189c-0.212,1.062,0,2.338,0,3.401
		c0,0.638,0.213,1.062,0.426,1.701c0.212,0.638,0.638,1.275,0.638,1.913v-0.425v-0.426l0,0c0,0,0.425,1.275,0.851,1.275v0.426
		c-0.426,1.275-0.426,2.764-0.213,4.039c0.213,0.638,0.425,1.275,0.638,1.913c0.213,0.639,0,1.488,0.213,2.126
		c0,0.426,0.425,0.639,0.638,0.639c-0.213,0.638-0.213,1.275-0.213,1.913c0,1.062,0.213,2.126,0.426,3.188
		c0.212,0.639,0.425,1.276,0.638,1.701c0,1.275,0.212,2.551,0.851,3.614v0.213h0.638v-0.426l0,0c0,2.552-0.213,5.103,1.275,7.441
		v0.213c-0.213,0.212-0.426,0.638-0.213,1.062c0,0.213,0.213,0.213,0.213,0.425l-0.213,0.213c-0.425,1.275-0.213,2.552,0,3.827
		c0,1.275,0.426,2.339,1.063,3.401c0,0.213,0.212,0.425,0.212,0.638c-0.212,0-0.425,0.213-0.425,0.426
		c-0.638,1.062-0.425,2.338-0.425,3.614c0.212,1.275,0.638,2.764,1.275,4.039l0.212,0.213c-0.85,2.126-0.212,4.677,1.063,6.378
		c0,0,0,0,0,0.212c-0.213,1.276,0.213,2.764,0.425,4.04c0.213,1.062,0.638,2.338,1.488,3.188c0,0,0,0,0.213,0.213
		c0,0.213,0,0.425,0.213,0.638c-0.426,0.213-0.638,0.213-0.851,0.425c-1.488,1.063-2.552,2.765-3.401,4.252
		c-1.063,1.914-1.488,3.827-1.276,5.953c0.213,2.339,0.426,4.678,1.488,6.804c0.426,1.062,1.276,2.126,1.276,3.401
		c0,0.638,0,1.062,0,1.701c0,0.638-0.213,1.062,0,1.7c0.212,0.638,0.85,0.851,1.275,0.638c0.851-0.638,1.275-2.126,1.913-2.977
		c0.638-1.275,1.275-2.764,1.913-4.252c1.488-2.764,3.827-5.102,5.315-7.866c0.851-1.487,1.275-2.764,1.275-4.252
		C146.056,269.789,145.844,269.365,145.631,268.514z M128.836,200.907l-0.213,0.212
		C128.623,201.119,128.623,201.119,128.836,200.907C128.623,200.907,128.623,200.907,128.836,200.907z M136.489,273.616
		C136.489,273.404,136.489,273.404,136.489,273.616C136.489,273.404,136.489,273.616,136.489,273.616L136.489,273.616z
		 M138.828,251.506L138.828,251.506L138.828,251.506L138.828,251.506z M139.041,251.08
		C139.253,251.08,139.041,251.08,139.041,251.08L139.041,251.08z M127.135,198.356c0,0.213,0,0.213,0,0.426
		C126.923,198.569,126.923,198.356,127.135,198.356L127.135,198.356z M133.088,227.907
		C133.088,227.907,132.875,227.907,133.088,227.907c-0.213,0-0.213,0-0.213-0.213C132.875,227.695,132.875,227.695,133.088,227.907z
		 M127.347,202.183C127.347,202.183,127.56,202.183,127.347,202.183C127.56,202.183,127.56,202.183,127.347,202.183L127.347,202.183
		z"/>
</g>
<g>
	<path fill="#B79D7B" d="M162.639,337.822c0,0-0.851,0.851-1.488,0.638c-0.426-0.213-0.426,0.425-0.851,0
		c-0.213-0.425-0.638-0.638-0.851-1.062c-0.425-0.639-0.425-1.488-0.638-2.126c-0.213-0.851-0.425-1.701-0.425-2.339
		c0-0.851,0-1.488-0.213-2.339c0-0.425,0-0.851,0-1.275c0-0.426-0.213-0.851-0.213-1.275c0-0.851-0.212-1.914-0.212-2.765
		c0-0.425-0.426-3.401-1.063-3.613l1.063-8.505l18.708-6.378l-9.779,20.835l-2.551,9.354"/>
	<path fill="#1200FF" d="M198.994,254.057c-0.213,0.638-0.638,2.764-0.638,3.189c0,0.851,0,1.7,0,2.338
		c-0.213,1.701-0.638,3.189-0.851,4.891c0,1.275-0.213,2.551-0.426,3.826c0,0.426,0,0.851,0,1.488s-0.212,1.275-0.212,1.701
		c0,1.275-0.638,2.764-1.275,3.826c-0.213,0.213-0.426,0.426-0.639,0.851c-0.212,0.213-0.212,0.638-0.425,1.063
		c-0.425,1.062-1.275,1.913-1.913,2.764c-0.851,0.851-1.488,1.701-2.126,2.339c-0.851,1.062-1.914,1.7-2.977,2.551
		c-1.913,1.488-3.614,2.977-5.315,4.465c-1.488,1.275-3.188,2.339-4.677,3.401c-1.063,0.638-1.701,1.488-2.764,1.913
		c-1.275,0.851-2.552,1.701-4.04,2.552c-2.126,1.275-4.039,2.764-6.378,4.039c-1.913,1.063-3.614,2.339-5.314,3.401
		c-1.063,0.639-2.126,1.488-3.402,2.126c-1.487,0.851-2.976,1.914-4.252,2.977c-0.425,0.426-0.638,0.638-1.062,1.063
		c-0.213,0.425-0.213,0.638-0.425,1.062c-0.213,0.851-0.426,1.914-0.639,2.764c-0.212,0.639-0.212,1.063-0.425,1.701
		c-0.213,0.425-0.213,0.851-0.425,1.488c-0.213,0.638-0.426,0.851-0.638,1.488c-0.213,0.425-0.213,0.851-0.426,1.275
		c-0.213,0.638-0.638,1.275-0.851,1.913c-0.425,1.063-0.638,2.126-0.851,3.189c-0.212,0.851-0.638,1.701-0.85,2.551
		c-0.213,0.638-0.426,1.488-0.426,2.126c0,0.851,0.638,1.914,1.063,2.552c0.638,0.851,1.488,1.7,1.913,2.764
		c0.426,0.851,0.851,1.701,1.063,2.764c0.212,0.851,0.638,1.488,1.062,2.339c0.426,0.851,1.063,1.062,1.913,1.275
		c0.639,0.213,1.488,0.425,1.914-0.213c0.638-0.638,1.062-1.913,1.275-2.764c0.425-1.488,0.425-2.551,0.213-4.039
		c-0.213-1.275-0.851-2.764-1.063-4.039c0-0.426,0-0.851,0-1.276c0-0.638,0.426-1.062,0.638-1.7
		c0.426-0.851,0.638-1.914,1.063-2.764c0.425-0.851,0.851-1.488,1.062-2.339c0.426-0.851,0.638-1.701,1.063-2.552
		c0.425-0.638,0.425-1.488,0.638-2.126c0.638-1.275,1.275-1.913,2.551-2.551c1.063-0.638,2.339-1.063,3.402-1.701
		c0.85-0.425,1.488-0.85,2.338-1.275c0.851-0.425,1.701-0.638,2.552-1.062c0.425-0.213,0.638-0.426,1.062-0.639
		c0.426-0.212,1.063-0.638,1.488-0.638c0,0.638-0.851,1.701-1.275,2.126c-1.063,1.488-2.126,2.765-3.401,4.252
		c-0.851,1.063-1.914,2.339-2.764,3.402c-0.426,0.638-0.851,0.85-1.063,1.488c-0.638,2.126-0.425,4.677-0.425,7.016
		c0,1.062,0.212,2.126,0.212,3.188c0,1.276,0,2.339,0.213,3.614c0.213,1.488,0,2.977,0.425,4.465
		c0.213,0.638,0.213,1.063,0.213,1.701s0.426,1.275,0.638,1.913c0.426,1.275,0.426,3.188,1.914,3.401
		c0.638,0.213,1.275,0.213,1.913,0.213c0.851,0,1.488-0.851,1.913-1.488c1.275-2.126,0.851-4.89,0.851-7.229
		c0-1.062,0-2.339,0-3.401c0-0.638-0.213-1.063,0-1.701c0.213-0.851,0.425-1.913,0.638-2.764c0.851-2.764,2.126-5.103,3.827-7.653
		c1.062-1.488,2.339-2.552,3.614-3.827c1.488-1.488,3.188-2.764,4.677-4.252c2.977-2.551,5.953-4.89,8.93-7.229
		c1.275-0.851,2.977-1.275,4.464-1.275c0.639,0,1.276,0,1.914,0.213c0.851,0.212,1.7,0.638,2.339,1.062
		c0.85,0.426,1.487,0.851,2.126,1.488c0.85,0.851,1.275,1.701,1.7,2.764c0.426,0.851,0.851,1.914,1.275,2.764
		c0.426,1.063,0.213,2.126,0.213,3.402c0,0.638-0.213,1.275-0.213,1.7c0,0.638-0.425,1.063-0.638,1.701
		c-0.638,1.062-1.062,2.126-1.913,3.188c-0.851,1.063-1.275,2.339-1.913,3.402c-0.638,1.275-1.276,2.551-1.488,3.826
		c-0.638,2.339-0.426,4.678-0.426,7.017c0,0.638,0.213,1.275,0.426,1.913c0.212,0.638,0.638,1.488,1.275,2.126
		c0.851,0.851,2.764,0.851,4.039,0.425c1.488-0.638,2.977-1.7,4.04-2.977c0.425-0.425,0.85-1.062,1.062-1.7
		c0.426-0.426,0.851-0.851,1.275-1.488c0.638-1.063,1.063-2.126,1.488-3.189c0.426-1.062,0.851-1.913,1.275-2.976
		c0.426-1.063,0.426-2.339,1.063-3.402c0.425-1.062,0.851-2.126,1.275-2.977c0.638-1.275,1.063-2.551,1.488-3.826
		c1.063-2.339,1.913-4.678,2.977-6.804c0.425-0.85,1.062-1.7,1.275-2.551s0.213-1.488,0.638-2.339
		c0.638-1.913,1.701-3.614,2.764-5.527c0.639-1.063,1.276-2.126,1.488-3.614c0.213-1.488,0.638-2.977,0.851-4.465
		c0.213-1.275,0.426-2.551,0.638-3.826c0-1.276-0.212-2.339-0.425-3.614c-0.213-2.126,0-4.252,0.425-6.378
		c0.638-2.765,0.638-5.315,0.638-8.079c0-1.063,0.213-1.913,0.426-2.977c0.425-1.275,0.425-2.126,0.425-3.401
		c0-1.063,0-2.126,0-3.189c0-1.275-0.213-2.338-0.213-3.614c0-1.7,0.426-5.74-1.062-6.165c0,0-0.213,0.851-0.851,1.062
		c-0.851,0.426-1.7,0.426-2.551,0.851c-1.488,0.638-3.189,0.851-4.89,1.063c-1.701,0.212-3.402,0-5.103,0.212
		c-1.701,0.213-3.614,0-5.528,0c-1.487,0-2.976,0-4.252-0.212c-2.126-0.426-4.039-0.851-5.952-1.275
		c-0.426,0-0.851-0.639-1.276-0.851c-0.425,0,1.488,0,1.063,0s-2.551,0.212-2.126,0c0.638-0.426,1.062-1.063,2.764-1.488
		c4.678-1.488,20.622-1.063,21.897-0.851c0.426,0,6.166,1.275,6.804,1.488"/>
</g>
<ellipse fill="#B79D7B" cx="214.938" cy="254.482" rx="16.158" ry="4.04"/>
</svg>
