<?xml version="1.0" encoding="utf-8"?>
<!-- Generator: Adobe Illustrator 16.0.0, SVG Export Plug-In . SVG Version: 6.00 Build 0)  -->
<!DOCTYPE svg PUBLIC "-//W3C//DTD SVG 1.1//EN" "http://www.w3.org/Graphics/SVG/1.1/DTD/svg11.dtd">
<svg version="1.1" id="Layer_1" xmlns="http://www.w3.org/2000/svg" xmlns:xlink="http://www.w3.org/1999/xlink" x="0px" y="0px"
	 width="425.201px" height="425.199px" viewBox="0 0 425.201 425.199" enable-background="new 0 0 425.201 425.199"
	 xml:space="preserve">
<g id="Calque_1">
	<path fill="#B79D7B" d="M365.885,159.025v49.323c0,0,0,1.275-1.062,1.488L185.6,277.443
		c11.479-4.677,133.726-52.937,176.671-69.308c0.638-0.212,0.425-5.739,2.338-3.401L365.885,159.025z"/>
	<path fill="#B79D7B" d="M365.885,158.812L365.885,158.812L365.885,158.812C365.673,158.812,365.673,158.812,365.885,158.812
		c-0.212-0.212-0.425-0.212-0.425-0.425c0,0,0,0-0.213-0.213c0,0,0,0-0.212-0.212c0,0,0-0.213-0.213-0.426l0,0
		c0,0,0-0.212-0.213-0.212c-0.212,0-0.212,0-0.212,0v-0.213l0,0v-0.213l-0.426-0.213c0.213,0,0.638,0.213,0.851,0.426
		s0.425,0.425,0.425,0.638C365.673,158.387,365.885,158.812,365.885,158.812z"/>
	<path fill="#B79D7B" d="M365.885,159.025l-1.487,45.709c-1.914-2.338-1.488,2.977-2.339,3.401
		c-42.732,16.371-164.979,64.844-176.671,69.308l0,0c-0.213,0.213-0.426,0.213-0.638,0.213h-0.213l-0.638-52.725l60.804-22.961
		l45.071-17.008l69.308-26.15l5.103-1.913c0,0,0,0,0.213,0l0.425,0.213v0.213l0,0v0.212c0.213,0,0.213,0,0.213,0l0.212,0.213l0,0
		c0,0,0,0.213,0.213,0.425c0,0,0,0,0.213,0.213c0,0,0,0,0.213,0.213l0.212,0.212C365.673,158.812,365.673,158.812,365.885,159.025
		L365.885,159.025z"/>
	<path fill="#FFFFFF" d="M363.971,157.112l-5.103,1.913l-18.708-7.229v6.166c0,6.165-10.843,9.354-21.261,9.354
		c-8.929,0-18.496-2.552-20.622-7.229c-0.426-0.638-0.426-1.488-0.426-2.126v-6.591v-3.827v-1.062c0-0.638,0.213-1.275,0.426-1.914
		v0.213c0,0.213,0.213,0.213,0.213,0.426c0,0,0,0.212,0.212,0.212c0,0.213,0.213,0.213,0.426,0.426
		c0.212,0.212,0.212,0.212,0.425,0.425c0,0,0,0,0.213,0.213c1.275,1.062,3.614,2.338,6.591,3.188c0.213,0,0.213,0,0.425,0
		c0.638,0.213,1.275,0.426,1.914,0.426c0.212,0,0.212,0,0.212,0c0.638,0.212,1.488,0.212,2.339,0.425c0.213,0,0.213,0,0.213,0
		c0.638,0.213,1.275,0.213,2.126,0.213c0.212,0,0.425,0,0.638,0c0.638,0,1.275,0.212,1.913,0.212c0.213,0,0.426,0,0.851,0
		c0.851,0,1.913,0,2.764,0c11.056,0,18.709-2.976,20.622-5.74c0,0,0,0,0,0.213c0,0.426,0.213,0.638,0.213,1.063v1.488
		L363.971,157.112z"/>
	<path fill="#FAE554" d="M359.082,159.025l-69.308,26.15l-1.275-3.189c4.039-1.488,6.803-4.039,6.803-7.016v-11.48
		c0-0.425,0-0.638-0.213-1.063c0-0.212,0-0.212-0.212-0.425c0.212-0.213,0.212-0.638,0.212-0.851c0-0.212,0-0.425-0.212-0.851h3.401
		c2.126,4.678,11.693,7.229,20.622,7.229c10.205,0,21.26-3.401,21.26-9.354v-6.165L359.082,159.025z"/>
	<path fill="#B79D7B" d="M340.586,143.93c0,0.426-0.213,0.851-0.425,1.276c-0.213-0.639-0.426-1.276-0.851-1.914
		c-0.213-0.213-0.426-0.638-0.851-0.851c-0.213-0.212-0.425-0.425-0.638-0.638l-0.213-0.212c-0.213-0.213-0.425-0.213-0.425-0.426
		c-0.213,0-0.213-0.213-0.426-0.213c-0.212,0-0.212-0.212-0.425-0.212c-0.213-0.213-0.426-0.213-0.426-0.213
		c-0.212,0-0.212-0.213-0.425-0.213c-0.213-0.212-0.425-0.212-0.638-0.212s-0.213,0-0.425-0.213
		c-0.213-0.213-0.426-0.213-0.639-0.213c-0.212,0-0.212,0-0.212-0.212c-0.213-0.213-0.638-0.213-0.851-0.213h-0.213
		c-0.212-0.213-0.638-0.213-1.062-0.426c-1.914-0.638-4.252-1.062-6.591-1.275c-0.851-0.212-1.913-0.212-2.764-0.212
		s-1.914,0-2.764,0l0,0c-2.126,0-4.252,0.212-6.378,0.425h-0.213c0.425,0,0.851-0.213,1.488-0.213l0,0
		c0.638,0,1.275-0.212,1.913-0.212c1.063,0,2.339-0.213,3.614-0.213s2.551,0,3.827,0.213c2.126,0.212,3.826,0.425,5.74,0.638
		c0.212,0,0.212,0,0.425,0c1.275,0.212,2.551,0.638,3.827,0.85c0.212,0,0.212,0.213,0.425,0.213
		c0.638,0.213,1.063,0.426,1.488,0.426l0,0c0.425,0.212,0.851,0.425,1.275,0.638c0.213,0,0.213,0.212,0.426,0.212
		c0.425,0.213,0.85,0.426,1.062,0.639l0,0c0.426,0.212,0.638,0.425,0.851,0.638c0,0,0.213,0,0.213,0.212
		c0.212,0.213,0.425,0.426,0.638,0.638C340.161,142.867,340.586,143.292,340.586,143.93z"/>
	<path fill="#B79D7B" d="M339.097,143.292c0.425,0.638,0.638,1.275,0.851,1.914c-1.914,2.764-9.567,5.739-20.622,5.739
		c-1.063,0-1.914,0-2.764,0c-0.213,0-0.639,0-0.851,0c-0.638,0-1.276,0-1.914-0.212c-0.212,0-0.425,0-0.638,0
		c-0.638-0.213-1.488-0.213-2.126-0.213c-0.212,0-0.212,0-0.212,0c-0.851-0.213-1.488-0.213-2.339-0.425h-0.213
		c-0.638-0.213-1.275-0.213-1.913-0.426c0,0-0.213,0-0.426,0c-2.977-0.851-5.314-2.126-6.591-3.188l-0.212-0.213
		c-0.213-0.213-0.213-0.213-0.426-0.425c-0.212-0.213-0.212-0.213-0.425-0.426c0,0,0-0.212-0.213-0.212c0,0-0.213-0.213-0.213-0.426
		c0,0,0,0,0-0.213c0,0,0,0,0-0.212c1.063-2.339,4.04-4.252,7.866-5.527l-0.425-0.213c1.701-0.426,3.827-1.063,6.166-1.275l0,0h0.212
		h0.213c2.126-0.213,4.252-0.426,6.378-0.426l0,0c0.851,0,1.913,0,2.764,0c1.063,0,1.914,0.213,2.764,0.213
		c2.339,0.213,4.465,0.638,6.591,1.275c0.426,0.213,0.638,0.213,1.063,0.426h0.212c0.213,0,0.639,0.212,0.851,0.212
		c0,0,0.213,0,0.213,0.213c0.213,0,0.425,0.213,0.638,0.213s0.213,0,0.425,0.212c0.213,0.213,0.426,0.213,0.639,0.213
		c0.212,0,0.212,0.213,0.425,0.213c0.213,0.212,0.425,0.212,0.425,0.212c0.213,0,0.213,0.213,0.426,0.213
		c0.212,0.213,0.212,0.213,0.425,0.213c0.213,0.213,0.426,0.213,0.426,0.425l0.212,0.213c0.213,0.213,0.426,0.425,0.638,0.638
		C338.673,142.655,338.885,142.867,339.097,143.292z"/>
	<path fill="#FFFFFF" d="M312.522,137.34h-0.213l0,0c-2.338,0.212-4.252,0.85-6.165,1.275l-11.268-4.252v6.165
		c0,6.165-10.843,9.354-21.048,9.354s-21.047-3.401-21.047-9.354v-6.591l-11.269,4.252c-0.851-0.212-1.913-0.425-2.764-0.638
		c-0.213,0-0.213,0-0.425,0c-1.063-0.212-2.339-0.425-3.614-0.425l18.071-6.804v-1.062c0-0.851,0.212-1.488,0.425-2.126
		c0,0,0,0,0,0.213v0.212c0,0.213,0,0.213,0.213,0.426v0.212c0.212,0.213,0.212,0.213,0.425,0.426c0.213,0,0.213,0.212,0.425,0.425
		c0,0,0.213,0,0.213,0.213c1.275,1.062,3.401,2.339,6.591,3.188h0.213c0.638,0.213,1.062,0.213,1.7,0.426c0,0,0.213,0,0.426,0
		c0.638,0.212,1.488,0.212,2.338,0.425h0.213c0.638,0.213,1.275,0.213,2.126,0.213c0.213,0,0.425,0,0.851,0
		c0.638,0,1.275,0.213,1.913,0.213c0.213,0,0.426,0,0.851,0c0.851,0,1.701,0.212,2.764,0.212c11.48,0,19.347-3.401,20.622-6.165
		c0,0.213,0.213,0.425,0.213,0.425c0,0.426,0.213,0.638,0.213,1.063v1.488L312.522,137.34z"/>
	<path fill="#B79D7B" d="M305.931,138.615l0.426,0.212c-3.827,1.276-6.804,2.977-7.866,5.528c0,0,0,0,0,0.212
		c0-0.212,0-0.425,0-0.425c0-0.213,0-0.425,0.212-0.638c0-0.213,0.213-0.426,0.213-0.426l0.213-0.212
		c0-0.213,0.212-0.213,0.212-0.426l0.213-0.212c0.213,0,0.213-0.213,0.426-0.213c0.212,0,0.212-0.213,0.212-0.213
		s0.213-0.212,0.426-0.212c0.212,0,0.212-0.213,0.425-0.213c0,0,0.213-0.213,0.425-0.213c0.213-0.212,0.426-0.212,0.426-0.212
		c0.213,0,0.213-0.213,0.425-0.213c0.213-0.213,0.426-0.213,0.638-0.426c0.213,0,0.213,0,0.213-0.212
		C303.593,139.466,304.656,139.04,305.931,138.615z"/>
	<path fill="#FAE554" d="M294.664,134.364l11.268,4.252c-1.275,0.425-2.339,0.851-3.188,1.275c-0.213,0-0.213,0-0.213,0.213
		c-0.213,0.212-0.425,0.212-0.638,0.425c-0.213,0-0.213,0.213-0.426,0.213c-0.212,0.212-0.425,0.212-0.425,0.212
		c-0.213,0-0.213,0.213-0.425,0.213c-0.213,0.213-0.213,0.213-0.426,0.213c-0.213,0.213-0.213,0.213-0.425,0.213
		c-0.213,0-0.213,0.212-0.213,0.212c-0.213,0.213-0.213,0.213-0.425,0.213l-0.213,0.213c-0.213,0-0.213,0.212-0.213,0.425
		c0,0,0,0.213-0.212,0.213c0,0.212-0.213,0.425-0.213,0.425c0,0.213-0.213,0.426-0.213,0.638c0,0.213,0,0.213,0,0.426
		c-0.213,0.638-0.425,1.275-0.425,1.913v1.062v3.827v6.591c0,0.851,0.212,1.488,0.425,2.126h-3.401
		c-0.213-0.213-0.426-0.638-0.638-0.851c-0.213-0.213-0.426-0.425-0.638-0.638l-0.213-0.213c-0.213-0.212-0.638-0.425-0.851-0.638
		l0,0c-0.425-0.212-0.638-0.425-1.062-0.638c-0.213,0-0.213,0-0.426-0.213c-0.425-0.212-0.851-0.425-1.275-0.638l0,0
		c-0.425-0.212-1.063-0.425-1.488-0.638c-0.213,0-0.213,0-0.425-0.213c-1.063-0.425-2.339-0.638-3.827-0.85c0,0-0.213,0-0.425,0
		c-1.701-0.426-3.614-0.638-5.74-0.638c-1.276,0-2.552-0.213-3.827-0.213l-3.401,0.213h-0.213c-0.638,0-1.275,0.212-1.701,0.212l0,0
		c-0.638,0-1.062,0.213-1.7,0.213l0,0c-3.827,0.638-7.016,1.488-9.354,2.551h-0.213c-0.212,0.213-0.425,0.213-0.638,0.426
		c-0.213,0-0.213,0.212-0.425,0.212c-0.213,0.213-0.426,0.213-0.638,0.213c0,0-0.213,0.213-0.426,0.213s-0.213,0.213-0.425,0.213
		c-0.213,0.212-0.213,0.212-0.426,0.212c-0.212,0.213-0.212,0.213-0.425,0.213s-0.213,0.213-0.213,0.213l-0.212,0.212
		c0,0.213-0.213,0.213-0.213,0.426c0,0,0,0.212-0.213,0.212c-0.212,0.213-0.212,0.426-0.212,0.426c0,0.213,0,0.425,0,0.425
		c0,0.213,0,0.426,0,0.426s0,0,0,0.212c0,0,0,0.213,0.212,0.213c-0.212,0.425-0.212,1.063-0.212,1.488v1.062v3.827v6.591
		c0,0.851,0.212,1.488,0.425,2.126h-3.401c-0.213-0.213-0.426-0.638-0.638-0.851c-0.213-0.213-0.426-0.425-0.639-0.638
		c0,0-0.212,0-0.212-0.213c-0.213-0.212-0.638-0.425-0.851-0.638l0,0c-0.425-0.213-0.638-0.425-1.063-0.638
		c-0.212,0-0.212,0-0.212-0.213c-0.426-0.212-0.851-0.425-1.275-0.638c-0.426-0.212-1.063-0.425-1.488-0.638
		c-0.213,0-0.213,0-0.426-0.213c-1.062-0.425-2.339-0.638-3.826-0.85c-0.213,0-0.213,0-0.426,0c-1.7-0.426-3.614-0.638-5.74-0.638
		c-0.425,0-0.638,0-1.062,0c0,0,0,0-0.213,0c-0.851,0-1.913,0-2.764,0c-1.275,0-2.552,0-3.827,0.212l0,0
		c-0.425,0-0.851,0-1.275,0.213l0,0c-0.638,0-1.063,0.213-1.701,0.213l0,0c-3.826,0.638-7.016,1.488-9.354,2.551
		c-0.212,0-0.212,0-0.212,0.213c-0.213,0-0.426,0.212-0.638,0.425c-0.213,0-0.213,0.213-0.426,0.213
		c-0.212,0-0.425,0.213-0.425,0.213c-0.213,0-0.213,0.212-0.426,0.212c-0.212,0-0.212,0.213-0.425,0.213s-0.213,0.213-0.425,0.213
		c0,0.212-0.213,0.212-0.213,0.212c-0.213,0-0.213,0.213-0.425,0.213l-0.213,0.213c0,0.212-0.213,0.212-0.213,0.425
		c0,0-0.213,0-0.213,0.213c-0.212,0.213-0.212,0.425-0.212,0.425c0,0.213,0,0.426,0,0.638c0,0.213,0,0.426,0,0.426l0,0l0,0
		c-0.213,0.638-0.426,1.275-0.426,1.913v1.063v3.826v6.591c0,0.851,0.213,1.488,0.426,2.126h-3.827
		c-0.213-0.213-0.425-0.638-0.638-0.851s-0.425-0.425-0.638-0.638l-0.213-0.213c-0.213-0.212-0.638-0.425-0.851-0.638l0,0
		c-0.425-0.212-0.638-0.425-1.062-0.638c-0.213,0-0.213-0.213-0.426-0.213c-0.425-0.212-0.85-0.425-1.275-0.638l0,0
		c-0.425-0.212-1.062-0.425-1.488-0.638c0,0-0.212,0-0.425,0c-1.063-0.425-2.339-0.638-3.827-0.851c-0.212,0-0.212,0-0.425-0.212
		c-1.701-0.213-3.614-0.638-5.527-0.638c-0.213,0-0.639,0-1.063,0c-0.851,0-1.913,0-2.764,0l-4.039,0.212
		c-0.426,0-1.063,0-1.488,0.213l0,0c-0.638,0-1.063,0.213-1.701,0.213l0,0c-3.827,0.425-7.016,1.488-9.354,2.338
		c0,0-0.213,0-0.213,0.213c-0.212,0-0.425,0.213-0.638,0.426c0,0-0.212,0.212-0.425,0.212c-0.213,0.213-0.425,0.213-0.425,0.426
		c-0.213,0-0.213,0.212-0.426,0.212c-0.213,0.213-0.213,0.213-0.425,0.213c-0.213,0.213-0.213,0.213-0.426,0.213l-0.212,0.212
		l-0.213,0.213c-0.213,0.213-0.213,0.213-0.213,0.213c0,0.851,0,0.851-0.213,1.063c0,0-0.212,0-0.212,0.212
		c0,0.213-0.213,0.426-0.213,0.426c0,0.212-0.213,0.425-0.213,0.638s0,0.425,0.213,0.425c-0.213,0.638-0.425,1.276-0.425,2.126
		v1.063v3.826v6.591c0,2.977,2.764,5.315,6.803,7.016l-1.275,3.189l-66.331-25.725l-3.827-1.488l19.347-7.229v6.591
		c0,6.165,10.843,9.354,21.048,9.354c10.204,0,21.047-3.401,21.047-9.354v-11.48c0-0.425,0-0.638-0.213-1.062
		c0-0.426-0.212-0.639-0.425-1.063c0-0.213,0-0.425,0-0.638c0-0.638-0.213-1.063-0.851-1.701c-0.212-0.212-0.425-0.425-0.638-0.638
		l-0.213-0.213c-0.212-0.212-0.638-0.425-0.85-0.638l0,0c-0.426-0.212-0.638-0.425-1.063-0.638c-0.213,0-0.213-0.212-0.213-0.212
		c-0.425-0.213-0.85-0.426-1.275-0.639l0,0c-0.425-0.212-1.062-0.425-1.488-0.425c-0.212,0-0.212-0.213-0.425-0.213
		s-0.213,0-0.426-0.212l10.843-4.04v6.591c0,6.165,10.843,9.354,21.261,9.354c10.204,0,21.047-3.401,21.047-9.354v-11.48
		c0-0.425,0-0.638-0.213-1.062c0.426-0.426,0.426-0.851,0.426-1.276c0-0.425-0.213-1.062-0.851-1.7
		c-0.213-0.213-0.425-0.426-0.638-0.638l-0.213-0.213c-0.213-0.213-0.638-0.425-0.851-0.638l0,0
		c-0.425-0.213-0.85-0.426-1.062-0.638c-0.213,0-0.213-0.213-0.426-0.213c-0.425-0.213-0.85-0.425-1.275-0.638l0,0
		c-0.425-0.213-1.062-0.426-1.488-0.638c-0.212,0-0.212,0-0.425-0.213c-0.425-0.213-0.851-0.213-1.063-0.213l11.056-4.252v6.591
		c0,6.165,10.843,9.354,21.048,9.354c10.204,0,21.26-3.401,21.26-9.354v-11.48c0-0.425,0-0.851-0.213-1.062
		c0-0.213,0-0.213-0.213-0.426c0.213-0.212,0.213-0.638,0.213-0.851c0-0.425-0.213-1.062-0.851-1.7
		c-0.212-0.213-0.425-0.426-0.638-0.638l-0.213-0.213c-0.212-0.213-0.638-0.425-0.85-0.638l0,0
		c-0.426-0.213-0.639-0.426-1.063-0.638c-0.213,0-0.213-0.213-0.213-0.213c-0.425-0.213-0.85-0.425-1.275-0.638l0,0
		c-0.425-0.213-1.062-0.425-1.488-0.638c-0.212,0-0.212,0-0.425-0.213s-0.638-0.213-1.063-0.213l11.269-4.252v6.591
		c0,6.166,10.842,9.354,21.047,9.354s21.048-3.401,21.048-9.354v-5.314H294.664z"/>
	<path fill="#FFFFFF" d="M295.089,163.277v11.48c0,2.977-2.764,5.315-6.803,7.016c-4.039,1.701-9.354,2.339-14.457,2.339
		c-8.929,0-18.496-2.551-20.622-7.229c-0.425-0.638-0.425-1.488-0.425-2.126v-6.591v-3.826v-1.063c0-0.638,0-1.062,0.212-1.488
		c0,0,0,0,0,0.213c0,0,0,0.213,0.213,0.213c0.213,0.212,0.213,0.212,0.425,0.425c0.213,0.213,0.213,0.213,0.426,0.426
		c0,0,0,0,0.212,0.212c1.276,1.063,3.614,2.339,6.591,3.189c0.213,0,0.213,0,0.426,0.212c0.638,0.213,1.275,0.426,1.913,0.426
		c0.213,0,0.213,0,0.213,0.213c0.638,0.212,1.488,0.212,2.338,0.425c0.213,0,0.213,0,0.213,0c0.638,0,1.488,0.213,2.126,0.213
		c0.213,0,0.425,0,0.638,0c0.638,0,1.275,0.212,1.914,0.212c0.212,0,0.638,0,0.85,0c0.851,0,1.914,0,2.764,0
		c11.693,0,19.56-3.401,20.835-6.165c0,0.213,0.213,0.213,0.213,0.425C295.089,162.639,295.089,163.065,295.089,163.277z"/>
	<path fill="#B79D7B" d="M294.877,160.088c0.212,0.212,0.212,0.425,0.212,0.851c0,0.212,0,0.638-0.212,0.85
		c-0.213-0.638-0.426-1.062-0.851-1.488c-0.213-0.212-0.426-0.638-0.851-0.85c-0.213-0.213-0.425-0.426-0.638-0.639l-0.213-0.212
		c-0.213-0.213-0.213-0.213-0.425-0.426c-0.213,0-0.213-0.212-0.426-0.212c-0.212,0-0.212-0.213-0.425-0.213
		c-0.213-0.213-0.425-0.213-0.425-0.213c-0.213,0-0.213-0.212-0.426-0.212c-0.213-0.213-0.425-0.213-0.638-0.213
		s-0.213,0-0.425-0.213c-0.213-0.212-0.426-0.212-0.638-0.212c0,0-0.213,0-0.213-0.213c-0.213-0.213-0.638-0.213-0.851-0.213h-0.213
		c-0.425-0.213-0.638-0.213-1.062-0.425c-1.913-0.638-4.252-1.063-6.591-1.276c-0.851-0.212-1.913-0.212-2.764-0.212
		c-1.063,0-1.913,0-2.764,0c1.275,0,2.551,0,3.826,0.212c2.126,0.213,4.04,0.426,5.74,0.639c0.213,0,0.213,0,0.426,0
		c1.488,0.212,2.764,0.638,3.826,0.85c0,0,0.213,0,0.426,0.213c0.638,0.213,1.062,0.426,1.488,0.638l0,0
		c0.425,0.213,0.851,0.426,1.275,0.638c0.213,0,0.213,0.213,0.425,0.213c0.426,0.213,0.851,0.425,1.063,0.638l0,0
		c0.425,0.213,0.638,0.426,0.851,0.638l0.212,0.213c0.213,0.213,0.426,0.425,0.638,0.638
		C294.664,159.662,294.877,159.875,294.877,160.088z"/>
	<path fill="#B79D7B" d="M294.664,126.497c0,0.212,0,0.425-0.213,0.851c-0.213-0.426-0.425-1.063-0.851-1.488
		c-0.212-0.213-0.425-0.638-0.85-0.851c-0.213-0.213-0.426-0.426-0.638-0.638c-0.213,0-0.213-0.213-0.213-0.213
		c-0.213-0.213-0.213-0.213-0.426-0.425c-0.212,0-0.212-0.213-0.425-0.213s-0.213-0.213-0.425-0.213
		c-0.213,0-0.426-0.213-0.426-0.213c-0.213,0-0.213-0.212-0.425-0.212c-0.213,0-0.426-0.213-0.638-0.213
		c-0.213,0-0.213-0.213-0.426-0.213c-0.212-0.212-0.425-0.212-0.638-0.212c0,0-0.213,0-0.213-0.213
		c-0.212-0.213-0.638-0.213-0.85-0.213h-0.213c-0.425-0.212-0.638-0.212-1.063-0.212c-1.913-0.639-4.252-1.063-6.59-1.276
		c-0.851-0.212-1.914-0.212-2.764-0.212c0.425,0,0.85,0,1.062,0c2.126,0.212,3.827,0.425,5.527,0.638c0.213,0,0.213,0,0.426,0
		c1.275,0.212,2.551,0.638,3.826,0.851c0.213,0,0.213,0,0.426,0.212c0.638,0.213,1.062,0.426,1.488,0.638l0,0
		c0.425,0.213,0.85,0.426,1.275,0.639c0.213,0,0.213,0.212,0.213,0.212c0.425,0.213,0.85,0.426,1.062,0.638l0,0
		c0.213,0.213,0.638,0.426,0.851,0.638l0.213,0.213c0.212,0.213,0.425,0.426,0.638,0.638
		C294.451,125.434,294.664,125.86,294.664,126.497z"/>
	<path fill="#B79D7B" d="M294.451,127.348L294.451,127.348c-1.275,2.764-9.142,6.165-20.622,6.165c-1.062,0-1.913,0-2.764-0.213
		c-0.213,0-0.425,0-0.851,0c-0.638,0-1.275-0.213-1.913-0.213c-0.213,0-0.426,0-0.851,0c-0.638,0-1.488-0.212-2.126-0.212h-0.213
		c-0.851-0.213-1.488-0.213-2.338-0.426c-0.213,0-0.213,0-0.426,0c-0.638-0.212-1.275-0.212-1.7-0.425c-0.213,0-0.213,0-0.213,0
		c-2.977-0.851-5.315-2.126-6.591-3.189c0,0,0,0-0.213-0.212c-0.212-0.213-0.212-0.213-0.425-0.426c0-0.212-0.213-0.212-0.425-0.425
		v-0.213c0-0.212-0.213-0.212-0.213-0.425c0,0,0,0,0-0.213c0,0,0,0,0-0.213c1.062-2.338,4.039-4.252,7.866-5.314
		c2.339-0.851,5.103-1.275,7.866-1.488c0.425,0,1.062-0.213,1.7-0.213l0,0c1.063,0,2.339-0.212,3.614-0.212c0.851,0,1.701,0,2.552,0
		s1.913,0.212,2.764,0.212c2.339,0.213,4.465,0.638,6.591,1.275c0.425,0,0.638,0.213,1.062,0.213h0.213
		c0.213,0.213,0.638,0.213,0.851,0.213c0.212,0,0.212,0,0.212,0.213c0.213,0.212,0.426,0.212,0.639,0.212
		c0.212,0,0.212,0.213,0.425,0.213s0.425,0.213,0.638,0.213s0.213,0.212,0.426,0.212c0.212,0,0.425,0.213,0.425,0.213
		c0.213,0,0.213,0.213,0.425,0.213c0.213,0,0.213,0.212,0.426,0.212c0.212,0.213,0.212,0.213,0.425,0.426
		c0.213,0,0.213,0.213,0.213,0.213c0.213,0.212,0.425,0.425,0.638,0.638c0.213,0.212,0.638,0.638,0.851,0.85
		C294.026,126.284,294.238,126.709,294.451,127.348z"/>
	<path fill="#B79D7B" d="M294.026,160.3c0.425,0.426,0.638,1.063,0.851,1.488c-1.488,2.764-9.354,6.166-20.835,6.166
		c-1.063,0-1.914,0-2.764,0c-0.213,0-0.426,0-0.851,0c-0.638,0-1.275,0-1.914-0.213c-0.212,0-0.425,0-0.638,0
		c-0.638-0.213-1.488-0.213-2.126-0.213c-0.212,0-0.212,0-0.212,0c-0.851-0.212-1.488-0.212-2.339-0.425
		c-0.213,0-0.213,0-0.213-0.213c-0.638-0.213-1.275-0.213-1.913-0.425c-0.213,0-0.213,0-0.426-0.213
		c-2.976-0.851-5.314-2.126-6.59-3.188c0,0,0,0-0.213-0.213s-0.213-0.213-0.425-0.426c-0.213-0.212-0.213-0.212-0.426-0.425
		c0,0,0-0.213-0.212-0.213v-0.212c0-0.213,0.212-0.426,0.212-0.638c1.063-2.339,4.04-4.252,7.866-5.315
		c2.764-0.851,6.166-1.488,9.567-1.701l3.401-0.212c0.851,0,1.913,0,2.764,0s1.914,0.212,2.764,0.212
		c2.339,0.213,4.465,0.638,6.591,1.276c0.426,0.212,0.638,0.212,1.063,0.425h0.212c0.213,0,0.638,0.213,0.851,0.213
		c0,0,0.213,0,0.213,0.212c0.213,0,0.425,0.213,0.638,0.213s0.213,0,0.425,0.213c0.213,0.212,0.426,0.212,0.639,0.212
		c0.212,0,0.212,0.213,0.425,0.213c0.213,0.213,0.425,0.213,0.425,0.213c0.213,0,0.213,0.213,0.426,0.213
		c0.212,0.212,0.212,0.212,0.425,0.212c0.213,0.213,0.213,0.213,0.426,0.426l0.212,0.212c0.213,0.213,0.426,0.426,0.638,0.638
		C293.6,159.662,293.813,159.875,294.026,160.3z"/>
	<path fill="#FAE554" d="M288.499,181.986l1.275,3.189l-45.071,17.008l-1.275-3.189c4.039-1.488,6.803-3.826,6.803-7.016v-11.48
		c0-0.425,0-0.638-0.213-1.062c0-0.213,0-0.213-0.212-0.426c0.212-0.425,0.212-0.638,0.212-0.851c0-0.212,0-0.638-0.212-0.85h3.401
		c2.126,4.677,11.693,7.228,20.622,7.228C279.144,184.324,284.459,183.474,288.499,181.986z"/>
	<path fill="#B79D7B" d="M276.381,119.694c-0.851,0-1.701,0-2.552,0C274.679,119.482,275.53,119.694,276.381,119.694z"/>
	<path fill="#B79D7B" d="M270.427,154.135h0.213c-3.402,0.213-6.591,0.851-9.567,1.701c-3.827,1.275-6.591,2.976-7.866,5.314
		c0,0.213-0.213,0.426-0.213,0.638c0,0,0-0.212-0.212-0.212v-0.213c0-0.213,0-0.425,0-0.425c0-0.213,0-0.426,0-0.426
		c0-0.213,0.212-0.425,0.212-0.425s0-0.213,0.213-0.213c0-0.213,0.213-0.213,0.213-0.425c0-0.213,0.212-0.213,0.212-0.213
		l0.213-0.213c0-0.212,0.213-0.212,0.425-0.212c0,0,0.213-0.213,0.426-0.213s0.213-0.213,0.425-0.213
		c0.213,0,0.213-0.213,0.426-0.213c0.212,0,0.425-0.212,0.638-0.212c0,0,0.212-0.213,0.425-0.213s0.426-0.213,0.638-0.425h0.213
		c2.339-1.063,5.527-1.914,9.354-2.552l0,0c0.638,0,1.062-0.212,1.7-0.212l0,0C269.152,154.135,269.79,154.135,270.427,154.135z"/>
	<path fill="#B79D7B" d="M268.302,119.906C268.514,119.906,268.514,119.906,268.302,119.906c-2.552,0.213-5.315,0.851-7.653,1.488
		c-3.827,1.275-6.804,2.977-7.866,5.314c0-0.212,0-0.212,0-0.212c0-0.213,0-0.426,0-0.638c0-0.213,0.212-0.426,0.212-0.426
		s0-0.212,0.213-0.212c0,0,0.213-0.213,0.213-0.426l0.212-0.213c0.213,0,0.213-0.212,0.426-0.212l0.212-0.213
		c0,0,0.213-0.213,0.426-0.213c0.213-0.212,0.213-0.212,0.425-0.212c0.213,0,0.213-0.213,0.426-0.213
		c0.212-0.213,0.425-0.213,0.425-0.213c0.213,0,0.213-0.212,0.425-0.212c0.213-0.213,0.426-0.213,0.639-0.426l0.212-0.213
		c2.339-1.062,5.527-1.913,9.354-2.338l0,0C267.238,119.906,267.664,119.906,268.302,119.906L268.302,119.906z"/>
	<path fill="#FFFFFF" d="M250.23,180.284v11.48c0,2.977-2.764,5.315-6.803,7.017c-4.04,1.487-9.354,2.338-14.457,2.338
		c-8.93,0-18.496-2.551-20.622-7.229c-0.426-0.638-0.426-1.275-0.426-2.126v-6.59v-3.827v-1.063c0-0.638,0.213-1.275,0.426-1.913
		l0,0c0,0.213,0,0.213,0.212,0.426v0.212c0.213,0.213,0.213,0.213,0.426,0.426c0.213,0,0.213,0.212,0.213,0.425
		c0,0,0.212,0,0.212,0.213c1.275,1.062,3.401,2.338,6.591,3.188c0.213,0,0.213,0,0.425,0.213c0.638,0.213,1.063,0.425,1.701,0.425
		c0.213,0,0.213,0,0.425,0c0.639,0.213,1.488,0.426,2.339,0.426h0.213c0.638,0.212,1.275,0.212,2.126,0.212c0.213,0,0.425,0,0.638,0
		c0.638,0,1.275,0.213,1.913,0.213c0.213,0,0.638,0,0.851,0c0.851,0,1.913,0,2.764,0c11.48,0,19.347-3.401,20.835-6.165
		c0,0.212,0.213,0.212,0.213,0.425C250.017,179.647,250.23,179.86,250.23,180.284z"/>
	<path fill="#B79D7B" d="M250.017,177.096c0.213,0.213,0.213,0.638,0.213,0.851c0,0.212,0,0.638-0.213,0.851
		c-0.212-0.639-0.425-1.063-0.85-1.488c-0.213-0.426-0.426-0.638-0.851-0.851c-0.213-0.213-0.426-0.426-0.638-0.638
		c-0.213,0-0.213-0.213-0.213-0.213c-0.213-0.213-0.213-0.213-0.425-0.425c-0.213,0-0.213-0.213-0.426-0.213
		s-0.213-0.213-0.425-0.213c-0.213-0.212-0.426-0.212-0.426-0.212c-0.212,0-0.212-0.213-0.425-0.213
		c-0.213-0.213-0.425-0.213-0.638-0.213s-0.213-0.213-0.426-0.213c-0.212,0-0.425-0.212-0.638-0.212h-0.212
		c-0.213-0.213-0.638-0.213-0.851-0.426h-0.213c-0.425-0.212-0.638-0.212-1.062-0.212c-1.914-0.639-4.252-1.063-6.591-1.276
		c-0.851-0.212-1.701-0.212-2.764-0.212c0.425,0,0.638,0,1.062,0c2.126,0.212,3.827,0.425,5.74,0.638c0,0,0.213,0,0.426,0
		c1.275,0.213,2.551,0.638,3.826,0.851c0.213,0,0.213,0,0.426,0.212c0.638,0.213,1.062,0.426,1.488,0.638
		c0.425,0.213,0.85,0.426,1.275,0.639c0.212,0,0.212,0.212,0.212,0.212c0.426,0.213,0.851,0.426,1.063,0.638l0,0
		c0.425,0.213,0.638,0.426,0.851,0.638c0.212,0,0.212,0.213,0.212,0.213c0.213,0.213,0.426,0.426,0.639,0.638
		C249.593,176.458,249.805,176.67,250.017,177.096z"/>
	<path fill="#FFFFFF" d="M249.805,146.056v11.48c0,6.166-10.843,9.354-21.261,9.354c-10.204,0-21.047-3.401-21.047-9.354v-6.591
		l-11.056,4.253c-0.85-0.213-1.7-0.426-2.764-0.639c-0.212,0-0.212,0-0.425,0c-1.275-0.212-2.552-0.425-3.827-0.425l17.858-6.803
		v-1.063c0-0.638,0-1.062,0.213-1.488c0,0,0,0,0,0.213c0,0,0,0.213,0.213,0.213c0,0.212,0.212,0.212,0.425,0.425
		c0,0,0.213,0.213,0.425,0.425c0,0,0,0,0.213,0.213c1.275,1.063,3.614,2.339,6.591,3.189c0.213,0,0.213,0,0.425,0.212
		c0.638,0.213,1.275,0.426,1.914,0.426c0.212,0,0.212,0,0.212,0c0.638,0.212,1.488,0.212,2.339,0.425c0.213,0,0.213,0,0.213,0
		c0.638,0.213,1.275,0.213,2.126,0.213c0.212,0,0.425,0,0.638,0c0.638,0,1.275,0.212,1.913,0.212c0.213,0,0.426,0,0.851,0
		c0.851,0,1.913,0,2.764,0c11.693,0,19.56-3.401,20.835-6.165c0,0.213,0.213,0.213,0.213,0.425
		C249.593,145.206,249.805,145.631,249.805,146.056z"/>
	<path fill="#B79D7B" d="M249.593,143.505c0,0.213,0,0.638-0.213,0.851c-0.212-0.638-0.425-1.063-0.851-1.488
		c-0.212-0.213-0.425-0.638-0.85-0.851c-0.213-0.213-0.426-0.425-0.638-0.638l-0.213-0.213c-0.213-0.213-0.213-0.213-0.426-0.425
		c-0.212,0-0.212-0.213-0.425-0.213c-0.213-0.213-0.213-0.213-0.425-0.213c-0.213,0-0.426-0.212-0.426-0.212
		c-0.212,0-0.212-0.213-0.425-0.213s-0.426-0.213-0.638-0.213c-0.213,0-0.213-0.212-0.426-0.212
		c-0.212-0.213-0.425-0.213-0.638-0.213c0,0-0.212,0-0.212-0.213c-0.213-0.213-0.639-0.213-0.851-0.213h-0.213
		c-0.213,0-0.425-0.212-0.638-0.212l0.213-0.213c0.425,0.213,0.638,0.213,1.062,0.213c0.213,0,0.213,0,0.426,0.212
		c0.638,0.213,1.062,0.426,1.487,0.639l0,0c0.426,0.212,0.851,0.425,1.276,0.638c0.212,0,0.212,0.212,0.212,0.212
		c0.426,0.213,0.851,0.426,1.063,0.639l0,0c0.425,0.212,0.638,0.425,0.851,0.638c0,0,0.212,0,0.212,0.212
		c0.213,0.213,0.426,0.426,0.638,0.638C249.38,142.442,249.593,143.08,249.593,143.505z"/>
	<path fill="#B79D7B" d="M248.955,177.309c0.425,0.425,0.638,1.062,0.851,1.488c-1.488,2.764-9.143,6.165-20.835,6.165
		c-1.063,0-1.913,0-2.764,0c-0.213,0-0.426,0-0.851,0c-0.638,0-1.275,0-1.913-0.213c-0.213,0-0.426,0-0.639,0
		c-0.638-0.213-1.487-0.213-2.126-0.213h-0.212c-0.851-0.212-1.488-0.212-2.339-0.425c-0.213,0-0.213,0-0.425,0
		c-0.639-0.213-1.276-0.213-1.701-0.425c0,0-0.213,0-0.425-0.213c-2.977-0.851-5.315-2.126-6.591-3.189c0,0,0-0.212-0.213-0.212
		c0-0.213-0.213-0.213-0.213-0.426c-0.212-0.212-0.212-0.212-0.425-0.425v-0.213c0,0-0.213-0.212-0.213-0.425l0,0l0,0
		c0,0,0-0.213,0.213-0.213c1.063-2.339,4.039-4.252,7.866-5.314c2.339-0.639,4.89-1.276,7.441-1.488c0.425,0,0.85-0.213,1.275-0.213
		l0,0c0.212,0,0.212,0,0.425,0c1.063,0,2.339-0.213,3.401-0.213c0.851,0,1.914,0,2.765,0c0,0,0,0,0.212,0
		c0.851,0,1.701,0.213,2.764,0.213c2.339,0.213,4.465,0.638,6.591,1.275c0.426,0.213,0.638,0.213,1.063,0.213h0.212
		c0.213,0.213,0.639,0.213,0.851,0.425c0.213,0,0.213,0,0.213,0c0.213,0.213,0.425,0.213,0.638,0.213s0.213,0.213,0.425,0.213
		c0.213,0.212,0.426,0.212,0.639,0.212c0.212,0,0.212,0.213,0.425,0.213c0.213,0.213,0.425,0.213,0.425,0.213
		c0.213,0,0.213,0.213,0.426,0.213c0.212,0,0.212,0.212,0.425,0.212c0.213,0.213,0.426,0.213,0.426,0.426
		c0.212,0,0.212,0.212,0.212,0.212c0.213,0.213,0.426,0.426,0.638,0.638C248.529,176.67,248.742,176.883,248.955,177.309z"/>
	<path fill="#B79D7B" d="M248.742,142.867c0.426,0.425,0.638,1.062,0.851,1.488c-1.275,2.764-9.142,6.165-20.835,6.165
		c-0.851,0-1.913,0-2.764,0c-0.213,0-0.638,0-0.851,0c-0.638,0-1.275,0-1.913-0.213c-0.213,0-0.426,0-0.638,0
		c-0.638-0.212-1.488-0.212-2.126-0.212c-0.213,0-0.213,0-0.213,0c-0.851-0.213-1.488-0.213-2.339-0.426c-0.212,0-0.212,0-0.212,0
		c-0.639-0.212-1.276-0.212-1.914-0.425c-0.212,0-0.212,0-0.425-0.213c-2.977-0.851-5.315-2.126-6.591-3.188l-0.213-0.213
		c-0.212-0.213-0.212-0.213-0.425-0.425c-0.213-0.213-0.213-0.213-0.425-0.426l-0.213-0.213c0,0,0,0,0-0.212
		c0-0.213,0.213-0.426,0.213-0.638c1.062-2.339,4.039-4.252,7.866-5.315c1.913-0.638,4.039-1.062,6.165-1.488
		c0.425,0,0.851-0.213,1.062-0.213l0,0c0.639,0,1.276-0.212,1.701-0.212c1.063-0.213,2.339-0.213,3.614-0.213s2.551,0,3.827,0.213
		c0.425,0,1.062,0,1.488,0.212c0.212,0,0.425,0,0.425,0c1.275,0.213,2.551,0.213,3.614,0.426c0.213,0,0.213,0,0.425,0
		c1.063,0.213,1.914,0.425,2.764,0.638l-0.212,0.213c0.212,0,0.425,0.212,0.638,0.212h0.213c0.212,0.213,0.638,0.213,0.85,0.213
		c0.213,0,0.213,0,0.213,0.213c0.213,0.212,0.426,0.212,0.638,0.212c0.213,0,0.213,0.213,0.426,0.213
		c0.212,0,0.425,0.213,0.638,0.213c0.212,0,0.212,0.213,0.425,0.213s0.426,0.212,0.426,0.212c0.212,0,0.212,0.213,0.425,0.213
		s0.213,0.213,0.425,0.213c0.213,0.212,0.426,0.212,0.426,0.425c0.212,0,0.212,0.213,0.212,0.213
		c0.213,0.212,0.426,0.425,0.639,0.638C248.104,142.23,248.317,142.442,248.742,142.867z"/>
	<path fill="#FAE554" d="M243.427,198.781l1.275,3.188l-60.804,22.961l-15.732-5.953l1.275-3.188
		c4.04,1.488,9.354,2.338,14.457,2.338c10.205,0,21.047-3.401,21.047-9.354v-11.48c0-0.426,0-0.638-0.212-1.063
		c0-0.213-0.213-0.638-0.213-0.851c0-0.212,0-0.425,0-0.425c0-0.213,0-0.638-0.213-0.851h3.827
		c2.126,4.678,11.693,7.229,20.622,7.229C234.073,201.332,239.387,200.482,243.427,198.781z"/>
	<path fill="#FFFFFF" d="M233.86,136.914c-0.425,0-1.062,0-1.488-0.213c-1.275-0.212-2.551-0.212-3.827-0.212
		c-1.275,0-2.551,0-3.613,0.212c-0.639,0-1.276,0-1.701,0.213c1.913-0.213,3.614-0.425,5.527-0.425c0.851,0,1.913,0,2.764,0l0,0
		C232.159,136.701,233.01,136.701,233.86,136.914z"/>
	<path fill="#FFFFFF" d="M228.97,170.931c-1.275,0-2.339,0-3.401,0.212c-0.213,0-0.213,0-0.426,0
		C226.419,170.931,227.695,170.931,228.97,170.931z"/>
	<path fill="#B79D7B" d="M223.655,171.143c0.426,0,0.851,0,1.275-0.212C224.506,171.143,224.081,171.143,223.655,171.143
		L223.655,171.143z"/>
	<path fill="#B79D7B" d="M221.955,171.356c0.425,0,1.062-0.213,1.7-0.213c-2.764,0.213-5.314,0.851-7.44,1.488
		c-3.827,1.275-6.804,2.977-7.866,5.315c0,0,0,0.212-0.213,0.212l0,0c0-0.212,0-0.425,0-0.425s0-0.425,0-0.638
		s0.213-0.426,0.213-0.426s0-0.212,0.212-0.212c0-0.213,0.213-0.213,0.213-0.426l0.213-0.212c0.213-0.213,0.213-0.213,0.425-0.213
		c0.213-0.213,0.213-0.213,0.213-0.213c0.213,0,0.213-0.212,0.425-0.212c0.213-0.213,0.213-0.213,0.426-0.213
		c0-0.213,0.212-0.213,0.425-0.213c0.213-0.212,0.426-0.212,0.426-0.212c0.212,0,0.212-0.213,0.425-0.213
		c0.213-0.213,0.425-0.213,0.638-0.426c0.213,0,0.213,0,0.213-0.212C214.938,172.844,218.128,171.993,221.955,171.356
		L221.955,171.356z"/>
	<path fill="#B79D7B" d="M221.317,137.127c0.212,0,0.425,0,0.638,0c-2.126,0.213-4.252,0.851-6.166,1.488
		c-3.826,1.275-6.803,2.977-7.866,5.314c0,0.213-0.212,0.426-0.212,0.638c0,0,0-0.212-0.213-0.212v-0.213c0-0.213,0-0.425,0-0.425
		s0-0.426,0.213-0.426c0-0.212,0.212-0.425,0.212-0.425l0.213-0.213c0.213,0,0.213-0.213,0.213-0.425l0.212-0.213
		c0.213-0.213,0.213-0.213,0.213-0.213l0.213-0.212c0.213-0.213,0.213-0.213,0.425-0.213c0.213,0,0.213-0.213,0.426-0.213
		c0.212,0,0.212-0.212,0.425-0.212c0.213-0.213,0.425-0.213,0.425-0.213s0.213-0.213,0.426-0.213
		c0.213-0.213,0.425-0.213,0.638-0.425l0.213-0.213C214.301,138.615,217.49,137.552,221.317,137.127L221.317,137.127z"/>
	<path fill="#FFFFFF" d="M205.159,197.293v11.48c0,6.165-10.843,9.354-21.047,9.354c-5.103,0-10.418-0.85-14.457-2.338
		s-6.804-3.827-6.804-7.016v-6.591v-3.827v-1.062c0-0.638,0.213-1.488,0.426-2.126v0.212c0,0.213,0.212,0.213,0.212,0.426
		c0,0,0,0.212,0.213,0.212c0,0.213,0.213,0.213,0.426,0.426c0,0.213,0.212,0.213,0.425,0.213c0,0,0,0.212,0.213,0.212
		c1.275,1.063,3.401,2.339,6.378,3.189c0.212,0,0.212,0,0.425,0.212c0.638,0.213,1.063,0.213,1.701,0.426c0.212,0,0.212,0,0.212,0
		c0.639,0.213,1.488,0.213,2.339,0.425h0.213c0.638,0.213,1.275,0.213,2.126,0.213c0.213,0,0.425,0,0.638,0
		c0.638,0,1.275,0.213,1.913,0.213c0.213,0,0.426,0,0.851,0c0.851,0,1.701,0,2.764,0c11.906,0,19.772-3.614,20.622-6.378
		c0.213,0.212,0.213,0.638,0.213,0.85C205.159,196.656,205.159,196.867,205.159,197.293z"/>
	<path fill="#B79D7B" d="M204.734,194.741c0,0.213,0,0.426,0,0.426c-0.213-0.426-0.426-0.851-0.638-1.063
		c-0.213-0.425-0.426-0.638-0.851-0.851c-0.213-0.212-0.426-0.425-0.638-0.638l-0.213-0.213c-0.213-0.212-0.213-0.212-0.425-0.425
		c-0.213-0.213-0.213-0.213-0.426-0.213c-0.212,0-0.212-0.212-0.425-0.212s-0.426-0.213-0.426-0.213
		c-0.212,0-0.212-0.213-0.425-0.213c-0.213-0.212-0.425-0.212-0.638-0.212s-0.213-0.213-0.425-0.213
		c-0.213,0-0.426-0.213-0.639-0.213c-0.212,0-0.212,0-0.212-0.213c-0.213,0-0.638-0.212-0.851-0.212h-0.213
		c-0.212-0.213-0.638-0.213-1.062-0.213c-1.914-0.638-4.252-1.062-6.591-1.275c-0.851-0.213-1.913-0.213-2.764-0.213
		c0.425,0,0.638,0,1.062,0c2.126,0.213,3.827,0.426,5.528,0.638c0.212,0,0.212,0,0.425,0.213c1.275,0.213,2.551,0.638,3.827,0.851
		c0.212,0,0.212,0,0.425,0c0.638,0.212,1.063,0.425,1.488,0.638l0,0c0.425,0.213,0.851,0.425,1.275,0.638c0,0,0.213,0,0.426,0.213
		c0.425,0.212,0.85,0.425,1.062,0.638l0,0c0.425,0.213,0.638,0.425,0.851,0.638c0,0,0.213,0,0.213,0.213
		c0.212,0.212,0.425,0.425,0.638,0.638c0.212,0.212,0.425,0.638,0.638,0.851C204.734,194.317,204.734,194.53,204.734,194.741z"/>
	<path fill="#FFFFFF" d="M204.734,162.852v11.48c0,6.165-10.843,9.354-21.048,9.354c-10.204,0-21.26-3.402-21.26-9.354v-6.378
		l-10.843,4.039c-1.062-0.213-2.126-0.638-3.188-0.851c-0.213,0-0.213,0-0.426,0c-1.062-0.212-1.913-0.425-2.977-0.425l17.434-6.591
		v-1.062c0-0.639,0.213-1.276,0.425-1.701c0,0.213,0,0.213,0.213,0.425c0,0,0,0.213,0.213,0.213c0,0.213,0.212,0.213,0.425,0.425
		c0,0,0.213,0.213,0.426,0.426c0,0,0,0,0.212,0.213c1.275,1.062,3.614,2.338,6.591,3.188c0.213,0,0.213,0,0.425,0.213
		c0.639,0.212,1.276,0.212,1.914,0.425c0.212,0,0.212,0,0.212,0c0.639,0.213,1.488,0.213,2.339,0.426c0.213,0,0.213,0,0.213,0
		c0.638,0.212,1.275,0.212,2.126,0.212c0.213,0,0.638,0,0.851,0c0.638,0,1.275,0.213,1.913,0.213c0.213,0,0.425,0,0.851,0
		c0.851,0,1.913,0,2.764,0c11.056,0,18.709-2.977,20.622-5.74C204.521,162.214,204.734,162.639,204.734,162.852z"/>
	<path fill="#B79D7B" d="M205.159,160.513c0,0.426-0.213,0.851-0.425,1.275c-0.213-0.638-0.426-1.488-0.851-2.126
		c-0.213-0.212-0.425-0.638-0.851-0.851c-0.213-0.212-0.425-0.425-0.638-0.638l-0.213-0.212c-0.212-0.213-0.212-0.213-0.425-0.426
		c-0.213,0-0.213-0.212-0.425-0.212c-0.213,0-0.213-0.213-0.426-0.213c-0.213-0.213-0.425-0.213-0.425-0.213
		c-0.213,0-0.213-0.213-0.426-0.213c-0.212-0.212-0.425-0.212-0.638-0.212c-0.212,0-0.212,0-0.425-0.213s-0.426-0.213-0.638-0.213
		c-0.213,0-0.213,0-0.213-0.212c-0.213-0.213-0.638-0.213-0.851-0.213h-0.212c-0.213,0-0.426-0.213-0.639-0.213l0.426-0.212
		c0.425,0,0.851,0.212,1.062,0.212c0.213,0,0.213,0,0.426,0.213c0.638,0.213,1.062,0.425,1.488,0.638l0,0
		c0.425,0.213,0.85,0.425,1.275,0.638c0.213,0,0.213,0,0.425,0.213c0.426,0.213,0.851,0.425,1.063,0.638l0,0
		c0.425,0.213,0.638,0.425,0.851,0.638c0,0,0.212,0,0.212,0.213c0.213,0.213,0.638,0.425,0.638,0.638
		C204.734,159.45,205.159,160.088,205.159,160.513z"/>
	<path fill="#B79D7B" d="M204.096,194.104c0.212,0.426,0.425,0.638,0.638,1.063c-0.851,2.764-8.717,6.378-20.622,6.378
		c-1.063,0-1.914,0-2.764,0c-0.213,0-0.426,0-0.851,0c-0.638,0-1.276,0-1.914-0.213c-0.212,0-0.425,0-0.638,0
		c-0.638,0-1.488-0.213-2.126-0.213h-0.212c-0.851-0.212-1.488-0.212-2.339-0.425c-0.213,0-0.213,0-0.213,0
		c-0.638-0.213-1.275-0.213-1.701-0.426c-0.212,0-0.212,0-0.425-0.212c-2.977-0.851-5.314-1.914-6.378-3.189c0,0,0,0-0.213-0.212
		c-0.212,0-0.212-0.213-0.425-0.213c-0.213-0.213-0.213-0.213-0.425-0.426c0,0,0,0-0.213-0.212c0-0.213,0-0.213-0.213-0.426
		c0,0,0,0,0-0.212c0,0,0,0,0-0.213c1.063-2.339,4.039-4.252,7.866-5.315c2.764-0.85,5.74-1.488,8.93-1.7l4.039-0.213
		c0.851,0,1.913,0,2.764,0c1.063,0,1.913,0.213,2.764,0.213c2.339,0.212,4.465,0.638,6.591,1.275
		c0.425,0.213,0.638,0.213,1.063,0.213h0.212c0.213,0.212,0.638,0.212,0.851,0.212c0,0,0.213,0,0.213,0.213
		c0.212,0.213,0.425,0.213,0.638,0.213s0.213,0.212,0.425,0.212c0.213,0,0.426,0.213,0.638,0.213c0.213,0,0.213,0.213,0.426,0.213
		c0.212,0,0.425,0.213,0.425,0.213c0.213,0.212,0.213,0.212,0.426,0.212c0.212,0,0.212,0.213,0.425,0.213
		c0.213,0.213,0.425,0.213,0.425,0.425c0.213,0,0.213,0.213,0.213,0.213c0.213,0.213,0.425,0.425,0.638,0.638
		C203.459,193.466,203.884,193.891,204.096,194.104z"/>
	<path fill="#B79D7B" d="M189.427,153.922h0.213c1.275,0.213,2.551,0.213,3.827,0.426c0.212,0,0.212,0,0.425,0
		c1.062,0.212,1.913,0.425,2.764,0.638l-0.638,0.213c0.213,0,0.425,0.212,0.638,0.212h0.213c0.212,0,0.638,0.213,0.851,0.213
		c0,0,0.212,0,0.212,0.213c0.213,0,0.426,0.212,0.638,0.212c0.213,0,0.213,0,0.426,0.213s0.425,0.213,0.638,0.213
		s0.213,0.212,0.425,0.212c0.213,0.213,0.426,0.213,0.426,0.213c0.212,0,0.212,0.213,0.425,0.213
		c0.213,0.213,0.213,0.213,0.426,0.213c0.212,0.212,0.425,0.212,0.425,0.425l0.213,0.213c0.212,0.212,0.425,0.425,0.638,0.638
		c0.212,0.212,0.638,0.638,0.851,0.851c0.425,0.638,0.85,1.275,0.85,2.126c-1.913,2.764-9.566,5.74-20.622,5.74
		c-1.062,0-1.913,0-2.764,0c-0.213,0-0.638,0-0.851,0c-0.638,0-1.275,0-1.913-0.213c-0.213,0-0.425,0-0.851,0
		c-0.638-0.213-1.488-0.213-2.126-0.213h-0.213c-0.85-0.213-1.488-0.213-2.338-0.425c-0.213,0-0.213,0-0.213,0
		c-0.638-0.213-1.275-0.213-1.913-0.426c-0.213,0-0.213,0-0.426-0.212c-2.977-0.851-5.314-2.126-6.591-3.189l-0.212-0.213
		c-0.213-0.212-0.213-0.212-0.426-0.425c-0.212-0.213-0.212-0.213-0.425-0.425c0,0,0-0.213-0.213-0.213
		c0-0.213-0.212-0.213-0.212-0.425l0,0c0-0.213,0.212-0.213,0.212-0.426c1.063-2.339,4.04-4.252,7.866-5.314
		c3.827-1.276,8.292-1.914,12.756-1.914c0.851,0,1.914,0,2.765,0C187.301,153.71,188.151,153.71,189.427,153.922
		C189.214,153.922,189.214,153.922,189.427,153.922z"/>
	<path fill="#B79D7B" d="M189.639,153.71h-0.213h-0.213c-0.85-0.213-1.913-0.213-2.764-0.213c-0.85,0-1.913,0-2.764,0
		c-4.465,0-9.142,0.638-12.756,1.913c-3.827,1.275-6.591,2.977-7.866,5.315c0,0.213-0.213,0.213-0.213,0.425c0,0,0,0,0-0.212
		c0-0.213-0.212-0.426-0.212-0.426c0-0.213,0-0.425,0.212-0.638c0-0.213,0.213-0.425,0.213-0.425s0-0.213,0.213-0.213
		c0-0.213,0.212-0.213,0.212-0.425l0.213-0.213c0.213-0.213,0.213-0.213,0.213-0.213c0.213,0,0.213-0.213,0.425-0.213
		c0.213,0,0.213-0.212,0.426-0.212c0.212,0,0.212-0.213,0.425-0.213s0.213-0.213,0.425-0.213c0.213-0.212,0.426-0.212,0.426-0.212
		c0.213,0,0.213-0.213,0.425-0.213c0.213-0.213,0.426-0.213,0.638-0.425l0.213-0.213c2.339-1.063,5.527-1.914,9.354-2.552l0,0
		c0.638,0,1.063-0.212,1.701-0.212l0,0c0.638,0,1.275-0.213,1.7-0.213c1.275,0,2.339-0.213,3.614-0.213s2.552,0,3.827,0.213
		C188.364,153.71,189.002,153.71,189.639,153.71z"/>
	<path fill="#B79D7B" d="M186.663,187.939c-0.851,0-1.913,0-2.764,0C184.962,187.939,185.812,187.939,186.663,187.939z"/>
	<path fill="#B79D7B" d="M185.387,277.443l-0.638,0.213C184.962,277.656,185.175,277.443,185.387,277.443z"/>
	<path fill="#FFFFFF" d="M183.899,224.931l0.638,52.725l0,0c-0.213,0-0.425,0.213-0.638,0.213s-0.425,0-0.638-0.213l0,0
		l-90.993-34.866c-0.638-0.213-1.062-0.851-1.062-1.701v-48.897l0,0c0-0.213,0-0.426,0-0.426v-0.212c0,0,0-0.213,0.212-0.213
		c0,0,0-0.213,0.213-0.213l0.213-0.212c0,0,0,0,0.212-0.213l0,0c0.213,0,0.213-0.213,0.426-0.213l23.599-8.929l1.275,3.401
		l-19.347,7.229l3.827,1.488l66.544,25.512L183.899,224.931z"/>
	<path fill="#B79D7B" d="M178.584,188.151c0.426,0,0.851,0,1.488-0.212c-3.188,0.212-6.165,0.851-8.929,1.7
		c-3.827,1.276-6.804,2.977-7.866,5.315c0,0,0,0,0,0.213c0-0.213-0.213-0.213-0.213-0.426c0-0.212,0-0.425,0.213-0.638
		c0-0.213,0.212-0.425,0.212-0.425l0.213-0.213c0,0,0,0,0.213-0.213l0.213-0.212l0.212-0.213c0.213,0,0.213-0.213,0.213-0.213
		c0.213-0.213,0.213-0.213,0.425-0.213c0.213-0.212,0.213-0.212,0.426-0.212c0.212,0,0.212-0.213,0.425-0.213
		s0.426-0.213,0.426-0.425c0.212,0,0.212,0,0.425-0.213s0.425-0.213,0.638-0.425c0,0,0.213,0,0.213-0.213
		c2.339-1.063,5.527-1.913,9.354-2.339l0,0C177.308,188.364,177.946,188.151,178.584,188.151L178.584,188.151z"/>
	<path fill="#FFFFFF" d="M159.663,179.86v11.48c0,6.165-10.843,9.354-21.048,9.354c-10.204,0-21.047-3.401-21.047-9.354v-6.591
		l-1.275-3.401l1.275-0.425v-1.063c0-0.638,0.212-1.488,0.425-2.126c0-0.213,0.213-0.213,0.213-0.425c0,0.212,0,0.212,0,0.425
		c0,0,0,0,0,0.213c0,0,0.213,0.212,0.213,0.425c0,0,0,0.213,0.212,0.213c0,0.213,0.213,0.213,0.426,0.425
		c0,0,0.212,0.213,0.212,0.426c0,0,0,0,0.213,0.212c1.275,1.063,3.401,2.339,6.378,3.189c0.213,0,0.213,0,0.426,0.213
		c0.638,0.212,1.062,0.212,1.7,0.425c0,0,0.213,0,0.213,0.213c0.638,0.212,1.488,0.212,2.126,0.425h0.213
		c0.638,0,1.275,0.213,2.126,0.213c0.212,0,0.425,0,0.638,0c0.638,0,1.275,0.212,1.913,0.212c0.213,0,0.425,0,0.851,0
		c0.851,0,1.7,0,2.764,0c11.693,0,19.56-3.613,20.622-6.378c0.213,0.213,0.213,0.638,0.426,1.063
		C159.663,179.222,159.663,179.435,159.663,179.86z"/>
	<path fill="#B79D7B" d="M159.237,177.309c0,0.212,0,0.425,0,0.638c-0.212-0.426-0.425-0.638-0.638-1.063
		c-0.212-0.212-0.425-0.638-0.85-0.851c-0.213-0.212-0.426-0.425-0.639-0.638c-0.212,0-0.212-0.212-0.212-0.212
		c-0.213-0.213-0.213-0.213-0.426-0.426c-0.212,0-0.212-0.213-0.425-0.213s-0.213-0.212-0.425-0.212
		c-0.213-0.213-0.426-0.213-0.426-0.213c-0.213,0-0.213-0.213-0.425-0.213c-0.213-0.212-0.426-0.212-0.638-0.212
		c-0.213,0-0.213-0.213-0.426-0.213c-0.213-0.213-0.425-0.213-0.638-0.213c0,0-0.213,0-0.213-0.212
		c-0.212-0.213-0.638-0.213-0.85-0.213h-0.213c-0.213,0-0.426-0.213-0.638-0.213l0.638-0.213c0.213,0,0.213,0,0.425,0.213
		c0.213,0,0.213,0,0.426,0.213c0.638,0.213,1.062,0.425,1.488,0.425l0,0c0.425,0.213,0.85,0.426,1.275,0.638
		c0.212,0,0.212,0.213,0.212,0.213c0.426,0.213,0.851,0.426,1.063,0.638l0,0c0.425,0.213,0.638,0.426,0.851,0.638l0.213,0.213
		c0.212,0.213,0.425,0.425,0.638,0.638C159.025,176.245,159.237,176.67,159.237,177.309z"/>
	<path fill="#B79D7B" d="M144.355,170.931l0.638-0.213c1.063,0.213,2.126,0.213,2.977,0.425c0,0,0.213,0,0.426,0
		c1.062,0.213,2.126,0.426,3.188,0.851l-0.638,0.213c0.213,0,0.425,0.212,0.638,0.212h0.213c0.213,0,0.638,0.213,0.851,0.213
		c0.212,0,0.212,0,0.212,0.213c0.213,0,0.426,0.213,0.638,0.213c0.213,0,0.213,0,0.426,0.212c0.213,0.213,0.425,0.213,0.638,0.213
		s0.213,0.213,0.425,0.213c0.213,0.212,0.426,0.212,0.426,0.212c0.212,0,0.212,0.213,0.425,0.213
		c0.213,0.213,0.213,0.213,0.426,0.213c0.212,0.212,0.212,0.212,0.425,0.425c0.213,0,0.213,0.213,0.213,0.213
		c0.212,0.213,0.425,0.425,0.638,0.638c0.212,0.213,0.638,0.638,0.851,0.851c0.212,0.425,0.425,0.638,0.638,1.062
		c-0.851,2.764-8.717,6.378-20.622,6.378c-0.851,0-1.914,0-2.765,0c-0.212,0-0.425,0-0.85,0c-0.638,0-1.276,0-1.914-0.212
		c-0.212,0-0.425,0-0.638,0c-0.638-0.213-1.275-0.213-2.126-0.213h-0.213c-0.85-0.213-1.487-0.213-2.126-0.425
		c0,0-0.212,0-0.212-0.213c-0.638-0.213-1.275-0.213-1.701-0.426c0,0-0.213,0-0.425-0.212c-2.977-0.851-5.103-2.126-6.378-3.189
		l-0.213-0.212c-0.213-0.213-0.213-0.213-0.213-0.426c-0.212-0.213-0.212-0.213-0.425-0.425c0,0,0-0.213-0.213-0.213
		c0-0.213-0.213-0.213-0.213-0.425v-0.213c0-0.213,0-0.425,0-0.425l0,0c1.276-2.126,4.04-3.827,7.441-4.891
		c3.827-1.275,8.291-1.913,12.969-1.913c0.851,0,1.913,0,2.764,0C142.229,170.718,143.293,170.718,144.355,170.931
		C144.143,170.931,144.143,170.931,144.355,170.931z"/>
	<path fill="#B79D7B" d="M144.993,170.718l-0.638,0.213h-0.212c-0.851-0.213-1.914-0.213-2.765-0.213c-1.062,0-1.913,0-2.764,0
		c-4.464,0-9.142,0.638-12.969,1.913c-3.614,1.063-6.165,2.764-7.44,4.89c0-0.212,0-0.425,0-0.638c0-0.212,0.213-0.425,0.213-0.425
		l0.212-0.213c0-0.213,0.213-0.213,0.213-0.425c0-0.213,0.213-0.213,0.213-0.213c0.212,0,0.212-0.213,0.425-0.213
		s0.213-0.212,0.213-0.212l0.212-0.213c0.213,0,0.213-0.213,0.426-0.213c0,0,0.213-0.212,0.425-0.212
		c0.213-0.213,0.213-0.213,0.426-0.213c0.212,0,0.212-0.213,0.425-0.213c0.213-0.213,0.425-0.213,0.638-0.425
		c0,0,0.213,0,0.213-0.213c2.339-1.062,5.314-1.913,9.142-2.551l0,0c0.638-0.213,1.063-0.213,1.701-0.213l0,0
		c0.638,0,1.275-0.213,1.7-0.213l0,0c1.063,0,2.339-0.212,3.614-0.212s2.552,0,3.827,0.212
		C143.293,170.505,144.143,170.505,144.993,170.718z"/>
</g>
</svg>
