<?xml version="1.0" encoding="utf-8"?>
<!-- Generator: Adobe Illustrator 16.0.0, SVG Export Plug-In . SVG Version: 6.00 Build 0)  -->
<!DOCTYPE svg PUBLIC "-//W3C//DTD SVG 1.1//EN" "http://www.w3.org/Graphics/SVG/1.1/DTD/svg11.dtd">
<svg version="1.1" id="Layer_1" xmlns="http://www.w3.org/2000/svg" xmlns:xlink="http://www.w3.org/1999/xlink" x="0px" y="0px"
	 width="425.201px" height="425.199px" viewBox="0 0 425.201 425.199" enable-background="new 0 0 425.201 425.199"
	 xml:space="preserve">
<g id="Calque_1">
	<path fill="#FFFFFF" d="M335.483,147.332c0,0-9.142-4.678-12.543-5.315c-2.765-0.638-11.693,0-11.693,0v-0.213
		c0-7.44-6.166-13.394-13.395-13.394c-3.401,0-6.378,1.488-8.929,3.401c-5.74,0.851-10.205,4.89-12.118,10.205
		c-14.67,0.851-28.914,5.74-41.032,14.457c0,0-14.456,11.48-19.984,13.818c-10.417,4.678-34.016,8.292-43.795,14.244
		c-14.883,8.93-49.961,48.898-49.961,48.898c-1.488,0.213-2.765,0.213-4.253,0.851l-7.866,1.062
		c-10.204,1.488-18.07,9.992-18.07,20.197c-0.213,7.016,2.764,13.606,7.866,18.071c0,0,20.196,24.023,29.764,27.638
		c15.095,5.953,64.631-0.213,64.631-0.213h10.204l9.143,6.166c0.638,0.213,1.488,0.213,1.913,0c0.851-0.638,0.851-1.913,0.213-2.764
		l-3.827-3.614h1.062h14.883l5.74,4.89c0.85,0.638,1.7,0.638,2.126,0c1.062-0.851,1.062-2.552,0-2.977l-6.591-6.378h-14.882
		l-14.67-7.441h-19.134c3.401-0.85,6.378-2.976,7.866-6.165l0.213-0.213h27.425c0,0,9.567,9.567,14.032,10.843
		c8.078,2.339,45.071,1.275,45.071,1.275l11.268-2.976l2.551,1.913c0.851,0.638,1.701,0.638,2.126,0
		c1.063-0.851,1.063-2.552,0-2.977l-3.614-2.764l-10.204,1.913h-11.693l14.244-6.591l3.827,2.552c0.638,0.213,1.7,0.213,2.126-0.213
		c0.851-0.851,0.851-1.913,0-2.551l-4.89-4.252l-16.583,6.165h-8.504l-4.891-3.401c1.914-2.552,1.914-5.74,0.213-8.504l-7.44-11.056
		l0.638-0.638c0,0,7.229,5.74,10.204,6.591c8.505,2.551,35.505,0,35.505,0l9.779-2.552l2.126,1.701c0.638,0.638,1.488,0.638,1.913,0
		c0.851-0.638,0.851-1.913,0-2.764l-2.976-2.552l-8.93,1.063h-10.205l12.544-5.74l3.401,2.126c0.638,0.213,1.488,0.213,1.913-0.213
		c0.638-0.638,0.638-1.7,0-2.126l-4.464-3.614l-14.457,5.315h-7.441l-4.464-2.764c1.7-2.126,1.7-5.315,0.212-7.441l-7.229-10.204
		l7.229-9.354c0,0,25.3-15.732,32.528-22.536c5.314-4.89,12.543-17.433,17.646-22.535c2.764-2.552,9.567-6.166,11.906-8.93
		c1.275-1.488,3.826-7.229,3.826-7.229c2.977-1.062,5.528-3.614,6.378-6.59C343.349,154.773,340.373,149.245,335.483,147.332z
		 M297.852,149.883c-3.522,0-6.378-2.855-6.378-6.378s2.855-6.378,6.378-6.378s6.379,2.855,6.379,6.378
		S301.375,149.883,297.852,149.883z"/>
	<circle fill="#1200FF" cx="298.916" cy="143.93" r="3.189"/>
	<g>
		<g>
			<polygon fill="#B79D7B" points="249.168,148.608 249.168,148.608 249.168,148.608 			"/>
			<path fill="#B79D7B" d="M296.577,128.41v0.213V128.41c0-0.213-0.212-0.213-0.425-0.425
				C296.365,128.198,296.365,128.198,296.577,128.41z"/>
			<path fill="#B79D7B" d="M295.089,127.56c0.213,0,0.213,0,0.426,0.213C295.514,127.56,295.302,127.56,295.089,127.56
				C295.302,127.56,295.302,127.56,295.089,127.56C295.302,127.56,295.302,127.56,295.089,127.56
				C295.302,127.56,295.302,127.56,295.089,127.56C295.302,127.56,295.302,127.56,295.089,127.56L295.089,127.56L295.089,127.56z"/>
			<path fill="#B79D7B" d="M249.38,148.608L249.38,148.608c0.213,0,0.426,0,0.638,0C249.593,148.608,249.38,148.608,249.38,148.608
				C249.168,148.608,249.168,148.608,249.38,148.608C249.168,148.608,249.168,148.608,249.38,148.608
				C249.168,148.608,249.168,148.608,249.38,148.608L249.38,148.608C249.168,148.608,249.168,148.608,249.38,148.608
				C249.168,148.608,249.168,148.608,249.38,148.608C249.168,148.608,249.168,148.608,249.38,148.608L249.38,148.608z"/>
			<path fill="#B79D7B" d="M273.829,141.804c1.488-0.638,2.764-1.275,4.252-2.126c0.426-0.212,0.638-0.425,1.063-0.638
				c0.212-0.213,0.638-0.213,0.85-0.425c0.639-0.213,1.063-0.638,1.701-0.851c0.425-0.213,0.851-0.425,1.275-0.851
				c0.213-0.213,0.638-0.425,1.063-0.638c0.638-0.425,1.275-0.851,1.913-1.275c0,0,0.213,0,0.213-0.213
				c2.126-1.275,3.826-2.551,5.314-3.827C287.222,134.788,281.27,138.403,273.829,141.804c-8.079,3.614-16.37,6.166-21.473,6.804
				c2.764-0.213,6.378-1.063,10.418-2.339c0.638-0.213,1.275-0.425,1.913-0.638C267.451,144.568,270.64,143.292,273.829,141.804z"/>
			<path fill="#B79D7B" d="M273.829,141.804L273.829,141.804c-3.188,1.488-6.378,2.764-9.142,3.614
				C267.451,144.568,270.64,143.292,273.829,141.804z"/>
			<line fill="none" x1="295.302" y1="127.348" x2="295.302" y2="127.348"/>
			<path fill="#B79D7B" d="M279.144,139.253c-0.426,0.213-0.638,0.425-1.063,0.638C278.294,139.678,278.719,139.466,279.144,139.253
				z"/>
			<path fill="#B79D7B" d="M273.829,141.804c1.488-0.638,2.764-1.275,4.252-2.126C276.593,140.529,275.317,141.166,273.829,141.804
				L273.829,141.804z"/>
			<path fill="#B79D7B" d="M296.152,125.222l-0.213-48.686v0.212l-17.008,22.748h0.213c6.59,0.851,11.48,4.891,11.055,9.143
				c-0.425,4.464-6.165,7.44-12.969,6.803c-6.59-0.638-11.692-4.89-11.268-9.142c0.213-2.977,3.189-5.315,7.016-6.378l-1.488-3.189
				c-1.913,0.851-11.48-1.062-27.213-18.708c2.977,23.386-1.7,32.103-3.614,32.74l1.488,3.188c3.402-2.338,7.017-2.977,9.567-1.275
				c3.614,2.551,3.614,8.93-0.213,14.457c-3.826,5.527-9.779,7.866-13.394,5.314c-3.614-2.551-3.401-8.929,0.213-14.456
				c0,0,0-0.213,0.212-0.213l-28.275-1.913l-0.213-0.213l36.78,31.89c-0.638,1.275-0.638,2.339-0.213,3.401
				c1.063,2.339,4.678,2.977,10.843,1.701c5.315-1.062,12.118-3.188,18.921-6.378c6.804-3.188,12.969-6.803,17.221-10.205
				c4.891-3.826,6.804-7.016,5.74-9.354C298.278,126.284,297.427,125.647,296.152,125.222z M289.561,92.906
				c1.275-0.638,2.764,0,3.401,1.275s0,2.764-1.275,3.401s-2.764,0-3.401-1.275S288.286,93.331,289.561,92.906z M227.907,126.497
				c-1.275,0.638-2.764,0-3.401-1.275c-0.638-1.276,0-2.765,1.275-3.402c1.276-0.638,2.764,0,3.402,1.275
				C229.821,124.371,229.183,125.86,227.907,126.497z M295.302,127.56L295.302,127.56c0.213,0,0.213,0.213,0.213,0.213
				C295.514,127.56,295.302,127.56,295.302,127.56C295.089,127.56,295.089,127.56,295.302,127.56
				C295.089,127.56,295.089,127.56,295.302,127.56L295.302,127.56z M288.924,121.608c1.062-0.426,2.339,0,2.764,1.062
				c0.425,1.063,0,2.339-1.062,2.764c-1.063,0.426-2.339,0-2.765-1.062C287.435,123.308,287.86,122.032,288.924,121.608z
				 M284.034,123.734c1.062-0.426,2.339,0,2.764,1.062c0.425,1.063,0,2.339-1.063,2.764c-1.062,0.426-2.338,0-2.764-1.062
				C282.546,125.434,282.97,124.371,284.034,123.734z M279.144,126.072c1.062-0.425,2.338,0,2.764,1.063
				c0.425,1.062,0,2.339-1.063,2.764c-1.062,0.425-2.338,0-2.764-1.063C277.656,127.773,278.081,126.497,279.144,126.072z
				 M261.711,97.158c1.275-0.638,2.764,0,3.401,1.275s0,2.764-1.275,3.401s-2.764,0-3.401-1.275S260.435,97.796,261.711,97.158z
				 M274.254,128.198c1.063-0.425,2.339,0,2.765,1.063c0.425,1.062,0,2.339-1.063,2.764c-1.062,0.425-2.339,0-2.764-1.063
				C272.766,129.899,273.191,128.835,274.254,128.198z M249.593,89.504c0.851-0.425,4.252,4.678,7.229,11.693
				c3.188,6.804,4.89,12.756,4.039,13.182c-0.851,0.425-4.252-4.678-7.229-11.693C250.656,95.67,248.742,89.93,249.593,89.504z
				 M262.986,119.056c1.701-0.638,3.401,0,4.252,1.488c0.638,1.701,5.74,15.945,4.04,16.583c-1.701,0.638-9.143-12.331-9.992-14.032
				C260.648,121.82,261.286,119.906,262.986,119.056z M250.017,108.001c-1.275,0.638-2.764,0-3.401-1.276
				c-0.638-1.275,0-2.764,1.275-3.401c1.276-0.638,2.765,0,3.402,1.275C251.931,105.875,251.294,107.363,250.017,108.001z
				 M262.986,133.513c1.063-0.426,2.339,0,2.764,1.062c0.426,1.063,0,2.339-1.062,2.765c-1.063,0.425-2.339,0-2.764-1.063
				C261.498,135.214,261.924,133.938,262.986,133.513z M258.096,135.639c1.063-0.425,2.339,0,2.764,1.062
				c0.426,1.063,0,2.339-1.062,2.765c-1.063,0.425-2.339,0-2.764-1.063C256.608,137.34,257.034,136.277,258.096,135.639z
				 M253.207,137.978c1.062-0.426,2.339,0,2.764,1.062c0.425,1.063,0,2.339-1.062,2.764c-1.063,0.426-2.339,0-2.765-1.062
				C251.719,139.678,252.143,138.403,253.207,137.978z M248.317,140.316c1.062-0.425,2.339,0,2.764,1.063
				c0.425,1.062,0,2.339-1.063,2.764c-1.062,0.425-2.338,0-2.764-1.062C246.829,142.017,247.254,140.741,248.317,140.316z
				 M249.168,148.608L249.168,148.608L249.168,148.608L249.168,148.608L249.168,148.608z M272.341,145.631
				c-0.213,0-0.213,0-0.425,0.213c-0.851,0.425-1.701,0.638-2.339,1.062c0,0,0,0-0.213,0c-12.118,4.678-19.771,4.89-20.409,3.401
				c-0.213-0.212,0-0.85,0.425-1.488l0,0l0,0l0,0l0,0l0,0l0,0l0,0l0,0l0,0c0.213,0,0.426,0,0.638,0c-0.212,0-0.425,0-0.638,0l0,0
				c0.213,0,0.426,0,0.638,0c0,0,0,0,0.213,0s0.426,0,0.851,0h0.213h0.212c0.213,0,0.638,0,0.851,0
				c2.764-0.212,6.378-1.062,10.418-2.338c-4.04,1.275-7.441,2.126-10.418,2.338c5.315-0.425,13.394-2.976,21.686-6.803
				c7.229-3.401,13.181-7.016,17.433-10.417c-1.488,1.275-3.401,2.551-5.314,3.826c2.126-1.275,3.826-2.551,5.314-3.826
				c1.488-1.276,2.765-2.552,3.827-3.614c0.638,0.212,1.063,0.425,1.275,0.638c0.213,0.638-0.425,2.126-2.338,3.826l-0.213,0.213
				c-0.213,0.213-0.426,0.425-0.638,0.638c-0.426,0.213-0.638,0.638-1.063,0.851l0,0c-1.275,1.063-2.764,2.126-4.677,3.401
				c0,0-0.213,0-0.213,0.213c-0.425,0.213-0.851,0.638-1.275,0.851c-0.213,0.212-0.426,0.212-0.638,0.425
				c-0.213,0.213-0.638,0.426-0.851,0.638c-0.426,0.213-0.851,0.426-1.275,0.851c0,0-0.213,0.213-0.426,0.213
				c-2.126,1.275-4.677,2.551-7.44,3.826C274.042,144.781,273.191,145.206,272.341,145.631z M296.577,128.623
				c0-0.213,0-0.213,0-0.213c0-0.213-0.212-0.213-0.425-0.425c0.213,0,0.425,0.212,0.425,0.212
				C296.577,128.41,296.577,128.623,296.577,128.623z"/>
			<path fill="#B79D7B" d="M262.561,146.269c0.638-0.213,1.275-0.425,1.913-0.638C263.837,145.844,263.199,146.056,262.561,146.269z
				"/>
			<path fill="#B79D7B" d="M281.482,137.978c-0.425,0.212-1.062,0.638-1.7,0.85C280.42,138.615,281.057,138.19,281.482,137.978z"/>
			<path fill="#B79D7B" d="M279.782,138.827c-0.213,0.213-0.638,0.213-0.851,0.426C279.356,139.04,279.569,139.04,279.782,138.827z"
				/>
			<path fill="#B79D7B" d="M285.734,135.426c-0.638,0.426-1.275,0.851-1.913,1.275C284.459,136.277,285.096,135.852,285.734,135.426
				z"/>
			<path fill="#B79D7B" d="M285.947,135.214c0,0-0.213,0-0.213,0.212L285.947,135.214z"/>
			<path fill="#B79D7B" d="M283.821,136.701c-0.213,0.213-0.638,0.426-1.062,0.639C283.183,136.914,283.396,136.701,283.821,136.701
				z"/>
			<path fill="#B79D7B" d="M282.759,137.127c-0.426,0.213-0.851,0.425-1.276,0.851C281.908,137.765,282.333,137.34,282.759,137.127z
				"/>
			<path fill="#B79D7B" d="M249.38,148.608L249.38,148.608C249.168,148.608,249.168,148.608,249.38,148.608L249.38,148.608
				C249.168,148.608,249.168,148.608,249.38,148.608z"/>
		</g>
	</g>
</g>
</svg>
