<?xml version="1.0" encoding="utf-8"?>
<!-- Generator: Adobe Illustrator 16.0.0, SVG Export Plug-In . SVG Version: 6.00 Build 0)  -->
<!DOCTYPE svg PUBLIC "-//W3C//DTD SVG 1.1//EN" "http://www.w3.org/Graphics/SVG/1.1/DTD/svg11.dtd">
<svg version="1.1" id="Layer_1" xmlns="http://www.w3.org/2000/svg" xmlns:xlink="http://www.w3.org/1999/xlink" x="0px" y="0px"
	 width="425.201px" height="425.199px" viewBox="0 0 425.201 425.199" enable-background="new 0 0 425.201 425.199"
	 xml:space="preserve">
<g id="Calque_1">
	<g>
		<g>
			<path fill="#FFFFFF" d="M261.924,113.953c0,12.331,0,24.662,0,36.78c0,4.039,6.378,4.039,6.378,0c0-12.331,0-24.662,0-36.78
				C268.302,109.914,261.924,109.914,261.924,113.953L261.924,113.953z"/>
		</g>
	</g>
	<g>
		<g>
			<path fill="#FFFFFF" d="M262.986,176.032c0.213,22.323,1.701,45.071,0.426,67.182c-1.063,15.521-18.709,24.875-31.678,14.244
				c-9.142-7.44-6.591-18.921-6.591-29.126c0-4.039-6.378-4.039-6.378,0c0,12.118-1.701,24.662,8.504,33.804
				c13.394,11.905,35.717,5.953,41.245-10.843c3.188-9.779,1.275-21.686,1.275-31.678c0-14.456-0.213-28.913-0.213-43.37
				C269.364,171.993,262.986,171.993,262.986,176.032L262.986,176.032z"/>
		</g>
	</g>
	<g>
		<g>
			<path fill="#FFFFFF" d="M275.742,163.49c-0.638,11.905-18.496,11.905-18.496,0S275.104,151.796,275.742,163.49
				c0.213,4.039,6.591,4.039,6.378,0c-0.425-8.504-6.803-15.52-15.52-15.52c-8.504,0-15.52,7.016-15.52,15.52
				c0,8.291,6.803,15.308,14.882,15.52c9.142,0.426,15.732-6.803,16.37-15.52C282.333,159.45,275.955,159.45,275.742,163.49z"/>
		</g>
	</g>
	<g>
		<g>
			<path fill="#B79D7B" d="M339.097,205.159c-0.638,39.543-25.087,75.473-62.505,88.866c-36.779,13.182-79.087,1.701-104.174-28.275
				c-25.3-30.189-29.126-74.197-9.142-108.214c20.409-34.653,61.654-53.149,100.984-44.646
				C307.845,122.245,338.247,161.151,339.097,205.159c0,4.039,6.378,4.039,6.378,0c-0.638-41.883-26.362-79.938-65.906-94.607
				c-40.182-14.882-86.741-1.913-113.528,31.465c-26.149,32.527-29.339,79.3-7.653,115.017
				c21.473,35.717,63.779,54.426,104.599,46.984c47.623-8.717,81.639-51.236,82.276-99.071
				C345.475,201.119,339.097,201.119,339.097,205.159z"/>
		</g>
	</g>
	<polygon fill="#FFFFFF" points="218.341,232.797 234.073,223.656 218.341,214.514 	"/>
	<path fill="#FFFFFF" d="M210.899,159.662c2.552-1.488-0.638-3.826-1.7-5.103c-1.488-1.7-2.552-3.614-3.827-5.314
		c-2.977-3.614-6.591-7.016-10.205-9.992c-8.079-6.804-17.433-11.905-26.787-16.583c-8.079-4.039-16.37-7.016-25.087-9.567
		c-5.315-1.7-10.63-2.976-16.158-2.764c-1.913,0-10.842,0-6.165,3.189c-0.851,0.425,1.488,1.488,1.701,2.126
		c0.212,0.851,1.488,1.062,2.126,1.488c0.212,0,0,0.425,0.212,0.638c0.426,0.425,1.063,0.851,1.701,1.275
		c-0.425,0.213,0,0.851,0.213,1.063c0.85,1.062,0.212,0.638-0.213,2.126c-0.851,2.338-0.638,3.401-2.551,5.314
		c-4.253,4.04-9.143,7.441-13.395,11.48c-2.551,2.339-4.89,4.89-6.803,7.866c-1.488,2.339-2.339,2.977,0.425,3.189
		c-3.188,3.188-8.079,6.59-12.118,3.188s-7.653-7.229-11.268-11.055c-6.591-6.804-16.796-14.457-24.236-13.606
		c2.339-0.426,17.858,25.937,18.283,26.575c1.063,1.487,2.552,2.551,1.488,5.102c-1.062,2.339-21.047,24.875-21.26,25.087
		c9.779,1.276,18.496-4.252,25.725-9.779c2.977-2.339,5.953-5.103,9.142-7.016c4.252-2.764,8.292-1.275,11.905,1.913
		c-4.89,3.827,13.606,18.922,16.371,21.473c2.764,2.339,6.59,5.315,7.228,8.93c0.426,2.338,0.851,2.764-1.487,4.677
		c1.487,1.063-0.426,0.851-1.063,1.488c-1.062,0.851-1.488,2.339-2.339,3.188c-0.638,0.851-5.103,2.339-5.103,3.402
		c0,1.7,17.009,0,18.922-0.213c6.378-0.851,12.543-2.339,18.283-5.103c5.528-2.764,9.78-7.866,15.945-9.142
		c12.118-2.551,22.323-10.843,30.402-19.771c2.338-2.339,4.252-5.103,6.59-7.441c2.339-2.339,2.552-5.527,4.465-8.079
		C211.112,163.065,214.089,159.45,210.899,159.662z M196.017,160.939c-2.7,0-4.89-2.189-4.89-4.891c0-2.7,2.189-4.89,4.89-4.89
		s4.89,2.189,4.89,4.89C200.907,158.749,198.718,160.939,196.017,160.939z"/>
	<circle fill="#FFFFFF" cx="196.868" cy="156.473" r="2.338"/>
</g>
</svg>
