<?xml version="1.0" encoding="utf-8"?>
<!-- Generator: Adobe Illustrator 16.0.0, SVG Export Plug-In . SVG Version: 6.00 Build 0)  -->
<!DOCTYPE svg PUBLIC "-//W3C//DTD SVG 1.1//EN" "http://www.w3.org/Graphics/SVG/1.1/DTD/svg11.dtd">
<svg version="1.1" id="Calque_1" xmlns="http://www.w3.org/2000/svg" xmlns:xlink="http://www.w3.org/1999/xlink" x="0px" y="0px"
	 width="425.201px" height="425.199px" viewBox="0 0 425.201 425.199" enable-background="new 0 0 425.201 425.199"
	 xml:space="preserve">
<g>
	<g>
		<g>
			<path fill="#1200FF" d="M261.924,113.953c0,12.331,0,24.662,0,36.78c0,4.039,6.378,4.039,6.378,0c0-12.331,0-24.662,0-36.78
				C268.302,109.914,261.924,109.914,261.924,113.953L261.924,113.953z"/>
		</g>
	</g>
	<g>
		<g>
			<path fill="#1200FF" d="M262.986,176.032c0.213,22.323,1.701,45.071,0.426,67.182c-1.063,15.521-18.709,24.875-31.678,14.244
				c-9.142-7.44-6.591-18.921-6.591-29.126c0-4.039-6.378-4.039-6.378,0c0,12.118-1.701,24.662,8.504,33.804
				c13.394,11.905,35.717,5.953,41.245-10.843c3.188-9.779,1.275-21.686,1.275-31.678c0-14.456-0.213-28.913-0.213-43.37
				C269.364,171.993,262.986,171.993,262.986,176.032L262.986,176.032z"/>
		</g>
	</g>
	<g>
		<g>
			<path fill="#1200FF" d="M275.742,163.49c-0.638,11.905-18.496,11.905-18.496,0S275.104,151.796,275.742,163.49
				c0.213,4.039,6.591,4.039,6.378,0c-0.425-8.504-6.803-15.52-15.52-15.52c-8.504,0-15.52,7.016-15.52,15.52
				c0,8.291,6.803,15.308,14.882,15.52c9.142,0.426,15.732-6.803,16.37-15.52C282.333,159.45,275.955,159.45,275.742,163.49z"/>
		</g>
	</g>
	<g>
		<g>
			<path fill="#B79D7B" d="M339.097,205.159c-0.638,39.543-25.087,75.473-62.505,88.866c-36.779,13.182-79.087,1.701-104.174-28.275
				c-25.3-30.189-29.126-74.197-9.142-108.214c20.409-34.653,61.654-53.149,100.984-44.646
				C307.845,122.245,338.247,161.151,339.097,205.159c0,4.039,6.378,4.039,6.378,0c-0.638-41.883-26.362-79.938-65.906-94.607
				c-40.182-14.882-86.741-1.913-113.528,31.465c-26.149,32.527-29.339,79.3-7.653,115.017
				c21.473,35.717,63.779,54.426,104.599,46.984c47.623-8.717,81.639-51.236,82.276-99.071
				C345.475,201.119,339.097,201.119,339.097,205.159z"/>
		</g>
	</g>
	<polygon fill="#1200FF" points="218.341,232.797 234.073,223.656 218.341,214.514 	"/>
	<path fill="#1200FF" d="M55.276,185.387c0.213-0.212,20.197-22.748,21.26-25.087c1.063-2.551-0.425-3.614-1.488-5.102
		c-0.425-0.639-15.944-27.001-18.283-26.575c7.44-0.851,17.646,6.803,24.236,13.606c3.614,3.826,7.229,7.653,11.268,11.055
		s8.93,0,12.118-3.188c-2.764-0.213-1.913-0.851-0.425-3.189c1.913-2.977,4.252-5.527,6.803-7.866
		c4.252-4.039,9.142-7.44,13.395-11.48c1.913-1.913,1.7-2.977,2.551-5.314c0.425-1.488,1.062-1.063,0.213-2.126
		c-0.213-0.213-0.638-0.851-0.213-1.063c-0.638-0.425-1.275-0.851-1.701-1.275c-0.212-0.213,0-0.638-0.212-0.638
		c-0.638-0.426-1.914-0.638-2.126-1.488c-0.213-0.638-2.552-1.701-1.701-2.126c-4.677-3.189,4.252-3.189,6.165-3.189
		c5.528-0.212,10.843,1.063,16.158,2.764c8.717,2.552,17.008,5.528,25.087,9.567c9.354,4.678,18.708,9.779,26.787,16.583
		c3.614,2.977,7.229,6.378,10.205,9.992c1.275,1.7,2.339,3.614,3.827,5.314c1.062,1.276,4.252,3.614,1.7,5.103
		c3.189-0.212,0.213,3.402-0.638,4.252c-1.913,2.552-2.126,5.74-4.465,8.079c-2.338,2.339-4.252,5.103-6.59,7.441
		c-8.079,8.929-18.284,17.221-30.402,19.771c-6.165,1.275-10.417,6.378-15.945,9.142c-5.74,2.764-11.905,4.252-18.283,5.103
		c-1.913,0.213-18.922,1.913-18.922,0.213c0-1.063,4.465-2.552,5.103-3.402c0.851-0.85,1.276-2.338,2.339-3.188
		c0.638-0.638,2.551-0.425,1.063-1.488c2.338-1.913,1.913-2.339,1.487-4.677c-0.638-3.614-4.464-6.591-7.228-8.93
		c-2.765-2.551-21.261-17.646-16.371-21.473c-3.613-3.188-7.653-4.677-11.905-1.913c-3.188,1.913-6.165,4.677-9.142,7.016
		C73.772,181.135,65.055,186.663,55.276,185.387"/>
	<circle fill="#FFFFFF" cx="196.017" cy="156.049" r="4.89"/>
	<circle fill="#1200FF" cx="196.868" cy="156.473" r="2.338"/>
</g>
</svg>
