<?xml version="1.0" encoding="utf-8"?>
<!-- Generator: Adobe Illustrator 16.0.0, SVG Export Plug-In . SVG Version: 6.00 Build 0)  -->
<!DOCTYPE svg PUBLIC "-//W3C//DTD SVG 1.1//EN" "http://www.w3.org/Graphics/SVG/1.1/DTD/svg11.dtd">
<svg version="1.1" id="Layer_1" xmlns="http://www.w3.org/2000/svg" xmlns:xlink="http://www.w3.org/1999/xlink" x="0px" y="0px"
	 width="425.201px" height="425.199px" viewBox="0 0 425.201 425.199" enable-background="new 0 0 425.201 425.199"
	 xml:space="preserve">
<g id="Calque_1">
	<g id="XMLID_4_">
		<g>
			<path fill="#FFFFFF" d="M150.095,174.119c0-11.905,29.765-21.473,66.757-21.473s66.756,9.567,66.756,21.473l-12.756,144.355
				c0,11.905-17.221,26.575-54,26.575c-36.78,0-54.001-14.67-54.001-26.575L150.095,174.119z"/>
		</g>
	</g>
	<path fill="#FFFFFF" d="M271.703,175.183c0-5.103-5.74-9.143-17.221-11.906c-9.992-2.551-23.386-4.039-37.63-4.039
		s-27.426,1.488-37.631,4.039c-11.479,2.977-17.22,7.016-17.22,11.906c0,3.188,2.338,5.952,6.803,8.291
		c1.275,0.638,2.764,0.213,3.401-1.063c0.638-1.275,0.213-2.764-1.062-3.401c-2.977-1.488-4.04-2.977-4.04-3.826
		c0-0.851,1.063-2.339,4.465-3.827c9.992-4.039,25.087-6.804,45.284-6.804s36.567,3.402,45.283,6.804
		c3.402,1.701,4.465,3.188,4.465,3.827c0,0.85-1.062,2.126-4.039,3.826c-1.275,0.638-1.701,2.126-1.063,3.401
		c0.638,1.276,2.126,1.701,3.402,1.063C269.364,180.923,271.703,178.158,271.703,175.183z"/>
	
		<rect x="224.618" y="29.669" transform="matrix(0.9942 -0.1076 0.1076 0.9942 -10.4341 25.1784)" fill="#B79D7B" width="7.016" height="159.24"/>
	
		<rect x="260.599" y="79.173" transform="matrix(0.97 0.2432 -0.2432 0.97 40.3781 -60.3026)" fill="#B79D7B" width="7.654" height="108.428"/>
	<line fill="none" stroke="#B79D7B" stroke-miterlimit="10" x1="217.277" y1="34.229" x2="244.916" y2="31.252"/>
	<line fill="none" stroke="#B79D7B" stroke-miterlimit="10" x1="217.49" y1="37.205" x2="245.128" y2="34.229"/>
	<line fill="none" stroke="#B79D7B" stroke-miterlimit="10" x1="217.915" y1="40.394" x2="245.553" y2="37.417"/>
	<line fill="none" stroke="#B79D7B" stroke-miterlimit="10" x1="218.128" y1="43.37" x2="245.765" y2="40.394"/>
	<line fill="none" stroke="#B79D7B" stroke-miterlimit="10" x1="218.552" y1="46.56" x2="246.191" y2="43.583"/>
	<line fill="none" stroke="#B79D7B" stroke-miterlimit="10" x1="218.978" y1="49.535" x2="246.403" y2="46.56"/>
	<line fill="none" stroke="#B79D7B" stroke-miterlimit="10" x1="219.191" y1="52.512" x2="246.829" y2="49.535"/>
	<line fill="none" stroke="#B79D7B" stroke-miterlimit="10" x1="219.616" y1="55.701" x2="247.042" y2="52.725"/>
	<line fill="none" stroke="#B79D7B" stroke-miterlimit="10" x1="219.829" y1="58.678" x2="247.467" y2="55.701"/>
	<line fill="none" stroke="#B79D7B" stroke-miterlimit="10" x1="220.254" y1="61.866" x2="247.891" y2="58.89"/>
	<line fill="none" stroke="#B79D7B" stroke-miterlimit="10" x1="220.467" y1="64.843" x2="248.104" y2="61.866"/>
	<line fill="none" stroke="#B79D7B" stroke-miterlimit="10" x1="220.891" y1="67.82" x2="248.529" y2="64.843"/>
	<line fill="none" stroke="#B79D7B" stroke-miterlimit="10" x1="221.317" y1="71.008" x2="248.742" y2="68.032"/>
	<line fill="none" stroke="#B79D7B" stroke-miterlimit="10" x1="221.529" y1="73.985" x2="249.168" y2="71.008"/>
	<line fill="none" stroke="#B79D7B" stroke-miterlimit="10" x1="221.955" y1="77.174" x2="249.38" y2="74.198"/>
	<line fill="none" stroke="#B79D7B" stroke-miterlimit="10" x1="251.719" y1="78.662" x2="278.507" y2="85.252"/>
	<line fill="none" stroke="#B79D7B" stroke-miterlimit="10" x1="250.868" y1="81.638" x2="277.868" y2="88.229"/>
	<line fill="none" stroke="#B79D7B" stroke-miterlimit="10" x1="250.23" y1="84.615" x2="277.018" y2="91.205"/>
	<line fill="none" stroke="#B79D7B" stroke-miterlimit="10" x1="249.38" y1="87.591" x2="276.381" y2="94.182"/>
	<line fill="none" stroke="#B79D7B" stroke-miterlimit="10" x1="248.742" y1="90.568" x2="275.53" y2="97.37"/>
	<line fill="none" stroke="#B79D7B" stroke-miterlimit="10" x1="247.891" y1="93.544" x2="274.892" y2="100.347"/>
	<line fill="none" stroke="#B79D7B" stroke-miterlimit="10" x1="247.254" y1="96.521" x2="274.042" y2="103.323"/>
	<line fill="none" stroke="#B79D7B" stroke-miterlimit="10" x1="246.403" y1="99.496" x2="273.404" y2="106.3"/>
	<line fill="none" stroke="#B79D7B" stroke-miterlimit="10" x1="245.553" y1="102.473" x2="272.553" y2="109.277"/>
	<line fill="none" stroke="#B79D7B" stroke-miterlimit="10" x1="244.916" y1="105.449" x2="271.916" y2="112.253"/>
	<line fill="none" stroke="#B79D7B" stroke-miterlimit="10" x1="244.065" y1="108.426" x2="271.065" y2="115.229"/>
	<line fill="none" stroke="#B79D7B" stroke-miterlimit="10" x1="243.427" y1="111.403" x2="270.215" y2="118.205"/>
	<line fill="none" stroke="#B79D7B" stroke-miterlimit="10" x1="242.577" y1="114.379" x2="269.577" y2="121.182"/>
	<line fill="none" stroke="#B79D7B" stroke-miterlimit="10" x1="241.939" y1="117.356" x2="268.726" y2="124.158"/>
	<line fill="none" stroke="#B79D7B" stroke-miterlimit="10" x1="241.089" y1="120.331" x2="268.089" y2="127.135"/>
	
		<rect x="193.469" y="97.81" transform="matrix(0.9942 -0.1077 0.1077 0.9942 -14.3033 22.0544)" fill="#B79D7B" width="7.016" height="91.207"/>
	<line fill="none" stroke="#B79D7B" stroke-miterlimit="10" x1="189.639" y1="102.261" x2="217.277" y2="99.284"/>
	<line fill="none" stroke="#B79D7B" stroke-miterlimit="10" x1="189.852" y1="105.237" x2="217.49" y2="102.261"/>
	<line fill="none" stroke="#B79D7B" stroke-miterlimit="10" x1="190.277" y1="108.426" x2="217.915" y2="105.449"/>
	<line fill="none" stroke="#B79D7B" stroke-miterlimit="10" x1="190.49" y1="111.403" x2="218.128" y2="108.426"/>
	<line fill="none" stroke="#B79D7B" stroke-miterlimit="10" x1="190.915" y1="114.591" x2="218.552" y2="111.615"/>
	<line fill="none" stroke="#B79D7B" stroke-miterlimit="10" x1="191.341" y1="117.568" x2="218.765" y2="114.591"/>
	<line fill="none" stroke="#B79D7B" stroke-miterlimit="10" x1="191.552" y1="120.544" x2="219.191" y2="117.568"/>
	<line fill="none" stroke="#B79D7B" stroke-miterlimit="10" x1="191.978" y1="123.734" x2="219.403" y2="120.757"/>
	<line fill="none" stroke="#B79D7B" stroke-miterlimit="10" x1="192.19" y1="126.709" x2="219.829" y2="123.734"/>
	<line fill="none" stroke="#B79D7B" stroke-miterlimit="10" x1="192.616" y1="129.899" x2="220.254" y2="126.922"/>
	<line fill="none" stroke="#B79D7B" stroke-miterlimit="10" x1="192.828" y1="132.875" x2="220.467" y2="129.899"/>
	<line fill="none" stroke="#B79D7B" stroke-miterlimit="10" x1="193.254" y1="135.852" x2="220.891" y2="132.875"/>
	<line fill="none" stroke="#B79D7B" stroke-miterlimit="10" x1="193.678" y1="139.04" x2="221.104" y2="136.064"/>
	<line fill="none" stroke="#B79D7B" stroke-miterlimit="10" x1="193.891" y1="142.017" x2="221.529" y2="139.04"/>
	<line fill="none" stroke="#B79D7B" stroke-miterlimit="10" x1="194.316" y1="145.206" x2="221.742" y2="142.23"/>
	
		<rect x="178.366" y="61.645" transform="matrix(-0.9942 -0.1077 0.1077 -0.9942 349.476 264.2047)" fill="#B79D7B" width="7.016" height="122.035"/>
	<line fill="none" stroke="#B79D7B" stroke-miterlimit="10" x1="190.915" y1="66.118" x2="163.277" y2="63.142"/>
	<line fill="none" stroke="#B79D7B" stroke-miterlimit="10" x1="190.49" y1="69.095" x2="163.064" y2="66.118"/>
	<line fill="none" stroke="#B79D7B" stroke-miterlimit="10" x1="190.277" y1="72.284" x2="162.639" y2="69.308"/>
	<line fill="none" stroke="#B79D7B" stroke-miterlimit="10" x1="189.852" y1="75.26" x2="162.427" y2="72.284"/>
	<line fill="none" stroke="#B79D7B" stroke-miterlimit="10" x1="189.639" y1="78.449" x2="162.002" y2="75.473"/>
	<line fill="none" stroke="#B79D7B" stroke-miterlimit="10" x1="189.214" y1="81.426" x2="161.576" y2="78.449"/>
	<line fill="none" stroke="#B79D7B" stroke-miterlimit="10" x1="189.002" y1="84.403" x2="161.363" y2="81.426"/>
	<line fill="none" stroke="#B79D7B" stroke-miterlimit="10" x1="188.576" y1="87.591" x2="160.938" y2="84.615"/>
	<line fill="none" stroke="#B79D7B" stroke-miterlimit="10" x1="188.151" y1="90.568" x2="160.725" y2="87.591"/>
	<line fill="none" stroke="#B79D7B" stroke-miterlimit="10" x1="187.938" y1="93.757" x2="160.301" y2="90.781"/>
	<line fill="none" stroke="#B79D7B" stroke-miterlimit="10" x1="187.513" y1="96.733" x2="160.088" y2="93.757"/>
	<line fill="none" stroke="#B79D7B" stroke-miterlimit="10" x1="187.301" y1="99.709" x2="159.663" y2="96.733"/>
	<line fill="none" stroke="#B79D7B" stroke-miterlimit="10" x1="186.876" y1="102.899" x2="159.45" y2="99.922"/>
	<line fill="none" stroke="#B79D7B" stroke-miterlimit="10" x1="186.663" y1="105.875" x2="159.025" y2="102.899"/>
	<line fill="none" stroke="#B79D7B" stroke-miterlimit="10" x1="186.238" y1="109.064" x2="158.599" y2="106.087"/>
	<path fill="#D9D7D8" d="M264.9,167.529c-1.276-0.638-2.765-0.212-3.402,1.063s-0.212,2.764,1.063,3.401
		c2.977,1.488,4.039,2.977,4.039,3.827s-1.062,2.338-4.465,3.826c-8.716,3.402-25.086,6.804-45.283,6.804
		s-35.292-2.764-45.284-6.804c-3.401-1.7-4.465-3.188-4.465-3.826c0-0.851,1.063-2.126,4.04-3.827
		c1.275-0.638,1.7-2.126,1.062-3.401s-2.126-1.701-3.401-1.063c-4.465,2.339-6.803,5.103-6.803,8.292
		c0,5.103,5.74,9.142,17.22,11.905c9.992,2.551,23.387,4.039,37.631,4.039s27.425-1.488,37.63-4.039
		c11.48-2.977,17.221-7.016,17.221-11.905C271.703,172.418,269.364,169.867,264.9,167.529z"/>
	<g>
		<circle fill="#B79D7B" cx="174.12" cy="263.837" r="2.338"/>
		<circle fill="#B79D7B" cx="179.01" cy="258.734" r="2.338"/>
		<circle fill="#B79D7B" cx="183.899" cy="253.844" r="2.338"/>
		<circle fill="#B79D7B" cx="188.789" cy="248.955" r="2.338"/>
		<circle fill="#B79D7B" cx="193.678" cy="244.065" r="2.339"/>
		<circle fill="#B79D7B" cx="198.781" cy="239.175" r="2.339"/>
		<circle fill="#B79D7B" cx="203.671" cy="234.285" r="2.339"/>
		<circle fill="#B79D7B" cx="208.56" cy="229.183" r="2.339"/>
		<circle fill="#B79D7B" cx="213.451" cy="224.293" r="2.339"/>
		<circle fill="#B79D7B" cx="218.341" cy="219.403" r="2.338"/>
		<circle fill="#B79D7B" cx="179.01" cy="268.726" r="2.338"/>
		<circle fill="#B79D7B" cx="183.899" cy="263.837" r="2.338"/>
		<circle fill="#B79D7B" cx="188.789" cy="258.734" r="2.338"/>
		<circle fill="#B79D7B" cx="193.678" cy="253.844" r="2.338"/>
		<circle fill="#B79D7B" cx="198.781" cy="248.955" r="2.338"/>
		<circle fill="#B79D7B" cx="203.671" cy="244.065" r="2.339"/>
		<circle fill="#B79D7B" cx="208.56" cy="239.175" r="2.339"/>
		<circle fill="#B79D7B" cx="213.451" cy="234.285" r="2.339"/>
		<circle fill="#B79D7B" cx="218.341" cy="229.183" r="2.339"/>
		<circle fill="#B79D7B" cx="223.23" cy="224.293" r="2.339"/>
		<circle fill="#B79D7B" cx="183.899" cy="273.616" r="2.339"/>
		<circle fill="#B79D7B" cx="188.789" cy="268.726" r="2.338"/>
		<circle fill="#B79D7B" cx="193.678" cy="263.837" r="2.338"/>
		<circle fill="#B79D7B" cx="198.781" cy="258.734" r="2.338"/>
		<circle fill="#B79D7B" cx="203.671" cy="253.844" r="2.338"/>
		<circle fill="#B79D7B" cx="208.56" cy="248.955" r="2.338"/>
		<circle fill="#B79D7B" cx="213.451" cy="244.065" r="2.339"/>
		<circle fill="#B79D7B" cx="218.341" cy="239.175" r="2.339"/>
		<circle fill="#B79D7B" cx="223.23" cy="234.285" r="2.339"/>
		<circle fill="#B79D7B" cx="228.333" cy="229.183" r="2.339"/>
		<circle fill="#B79D7B" cx="188.789" cy="278.506" r="2.339"/>
		<circle fill="#B79D7B" cx="193.678" cy="273.616" r="2.339"/>
		<circle fill="#B79D7B" cx="198.781" cy="268.726" r="2.338"/>
		<circle fill="#B79D7B" cx="203.671" cy="263.837" r="2.338"/>
		<circle fill="#B79D7B" cx="208.56" cy="258.734" r="2.338"/>
		<circle fill="#B79D7B" cx="213.451" cy="253.844" r="2.338"/>
		<circle fill="#B79D7B" cx="218.341" cy="248.955" r="2.338"/>
		<circle fill="#B79D7B" cx="223.23" cy="244.065" r="2.339"/>
		<circle fill="#B79D7B" cx="228.333" cy="239.175" r="2.339"/>
		<circle fill="#B79D7B" cx="233.222" cy="234.285" r="2.339"/>
		<circle fill="#B79D7B" cx="193.678" cy="283.396" r="2.339"/>
		<circle fill="#B79D7B" cx="198.781" cy="278.506" r="2.339"/>
		<circle fill="#B79D7B" cx="203.671" cy="273.616" r="2.339"/>
		<circle fill="#B79D7B" cx="208.56" cy="268.726" r="2.338"/>
		<circle fill="#B79D7B" cx="213.451" cy="263.837" r="2.338"/>
		<circle fill="#B79D7B" cx="218.341" cy="258.734" r="2.338"/>
		<circle fill="#B79D7B" cx="223.23" cy="253.844" r="2.338"/>
		<circle fill="#B79D7B" cx="228.333" cy="248.955" r="2.338"/>
		<circle fill="#B79D7B" cx="233.222" cy="244.065" r="2.339"/>
		<circle fill="#B79D7B" cx="238.112" cy="239.175" r="2.339"/>
		<circle fill="#B79D7B" cx="198.781" cy="288.286" r="2.338"/>
		<circle fill="#B79D7B" cx="203.671" cy="283.396" r="2.339"/>
		<circle fill="#B79D7B" cx="208.56" cy="278.506" r="2.339"/>
		<circle fill="#B79D7B" cx="213.451" cy="273.616" r="2.339"/>
		<circle fill="#B79D7B" cx="218.341" cy="268.726" r="2.338"/>
		<circle fill="#B79D7B" cx="223.23" cy="263.837" r="2.338"/>
		<circle fill="#B79D7B" cx="228.333" cy="258.734" r="2.338"/>
		<circle fill="#B79D7B" cx="233.222" cy="253.844" r="2.338"/>
		<circle fill="#B79D7B" cx="238.112" cy="248.955" r="2.338"/>
		<circle fill="#B79D7B" cx="243.002" cy="244.065" r="2.339"/>
		<circle fill="#B79D7B" cx="203.671" cy="293.388" r="2.339"/>
		<circle fill="#B79D7B" cx="208.56" cy="288.286" r="2.338"/>
		<circle fill="#B79D7B" cx="213.451" cy="283.396" r="2.339"/>
		<circle fill="#B79D7B" cx="218.341" cy="278.506" r="2.339"/>
		<circle fill="#B79D7B" cx="223.23" cy="273.616" r="2.339"/>
		<circle fill="#B79D7B" cx="228.333" cy="268.726" r="2.338"/>
		<circle fill="#B79D7B" cx="233.222" cy="263.837" r="2.338"/>
		<circle fill="#B79D7B" cx="238.112" cy="258.734" r="2.338"/>
		<circle fill="#B79D7B" cx="243.002" cy="253.844" r="2.338"/>
		<circle fill="#B79D7B" cx="247.891" cy="248.955" r="2.338"/>
		<circle fill="#B79D7B" cx="208.56" cy="298.278" r="2.338"/>
		<circle fill="#B79D7B" cx="213.451" cy="293.388" r="2.339"/>
		<circle fill="#B79D7B" cx="218.341" cy="288.286" r="2.338"/>
		<circle fill="#B79D7B" cx="223.23" cy="283.396" r="2.339"/>
		<circle fill="#B79D7B" cx="228.333" cy="278.506" r="2.339"/>
		<circle fill="#B79D7B" cx="233.222" cy="273.616" r="2.339"/>
		<circle fill="#B79D7B" cx="238.112" cy="268.726" r="2.338"/>
		<circle fill="#B79D7B" cx="243.002" cy="263.837" r="2.338"/>
		<circle fill="#B79D7B" cx="247.891" cy="258.734" r="2.338"/>
		<circle fill="#B79D7B" cx="252.782" cy="253.844" r="2.338"/>
		<circle fill="#B79D7B" cx="213.451" cy="303.168" r="2.338"/>
		<circle fill="#B79D7B" cx="218.341" cy="298.278" r="2.338"/>
		<circle fill="#B79D7B" cx="223.23" cy="293.388" r="2.339"/>
		<circle fill="#B79D7B" cx="228.333" cy="288.286" r="2.338"/>
		<circle fill="#B79D7B" cx="233.222" cy="283.396" r="2.339"/>
		<circle fill="#B79D7B" cx="238.112" cy="278.506" r="2.339"/>
		<circle fill="#B79D7B" cx="243.002" cy="273.616" r="2.339"/>
		<circle fill="#B79D7B" cx="247.891" cy="268.726" r="2.338"/>
		<circle fill="#B79D7B" cx="252.782" cy="263.837" r="2.338"/>
		<circle fill="#B79D7B" cx="257.884" cy="258.734" r="2.338"/>
		<circle fill="#B79D7B" cx="218.341" cy="308.057" r="2.338"/>
		<circle fill="#B79D7B" cx="223.23" cy="303.168" r="2.338"/>
		<circle fill="#B79D7B" cx="228.333" cy="298.278" r="2.338"/>
		<circle fill="#B79D7B" cx="233.222" cy="293.388" r="2.339"/>
		<circle fill="#B79D7B" cx="238.112" cy="288.286" r="2.338"/>
		<circle fill="#B79D7B" cx="243.002" cy="283.396" r="2.339"/>
		<circle fill="#B79D7B" cx="247.891" cy="278.506" r="2.339"/>
		<circle fill="#B79D7B" cx="252.782" cy="273.616" r="2.339"/>
		<circle fill="#B79D7B" cx="257.884" cy="268.726" r="2.338"/>
		<circle fill="#B79D7B" cx="262.774" cy="263.837" r="2.338"/>
	</g>
</g>
</svg>
