<?xml version="1.0" standalone="no"?>
<!DOCTYPE svg PUBLIC "-//W3C//DTD SVG 20010904//EN"
 "http://www.w3.org/TR/2001/REC-SVG-20010904/DTD/svg10.dtd">
<svg version="1.0" xmlns="http://www.w3.org/2000/svg"
 width="445.000000pt" height="445.000000pt" viewBox="0 0 445.000000 445.000000"
 preserveAspectRatio="xMidYMid meet">
<metadata>
Created by potrace 1.11, written by Peter Selinger 2001-2013
</metadata>
<g transform="translate(0.000000,445.000000) scale(0.100000,-0.100000)"
fill="#000000" stroke="none">
<path d="M2801 4310 l-51 -50 0 -918 0 -917 51 -50 52 -50 355 0 356 0 50 53
51 53 0 915 0 916 -50 49 -50 49 -357 0 -357 0 -50 -50z"/>
<path d="M1611 3268 l-737 -738 0 -51 c1 -47 4 -54 52 -102 l52 -52 735 0 736
0 50 51 51 52 0 738 0 739 -50 49 c-45 46 -53 50 -101 51 l-52 2 -736 -739z"/>
<path d="M570 2075 l-50 -51 0 -359 0 -360 51 -49 c50 -48 54 -49 113 -50 33
-1 69 2 79 7 9 4 17 4 17 0 0 -7 185 -9 208 -3 4 1 12 1 17 0 27 -6 218 -4
222 3 2 4 9 4 15 1 15 -9 219 -11 225 -1 2 4 9 4 15 1 15 -9 219 -11 225 -1 2
4 9 4 15 1 6 -4 171 -8 366 -8 l355 -1 54 52 53 52 0 359 0 358 -51 49 -51 49
-914 1 -915 0 -49 -50z"/>
<path d="M2803 2076 l-53 -49 0 -917 0 -918 51 -51 51 -51 357 0 357 0 50 53
50 52 -1 912 0 912 -51 53 -50 53 -355 0 -354 0 -52 -49z"/>
</g>
</svg>
